# Blender 5.0.1
# www.blender.org
mtllib proximal_1025_coacd.mtl
o convex_1.006
v 0.004134 0.013228 -0.018504
v 0.006450 0.011982 -0.016876
v -0.000448 0.014805 -0.016967
v 0.004497 0.013226 -0.019283
v 0.006997 0.013604 -0.030116
v -0.001591 0.016283 -0.028640
v -0.001152 0.016513 -0.030017
v -0.004512 0.017122 -0.029820
v -0.002183 0.015367 -0.016879
v -0.005469 0.015026 -0.016907
v 0.006949 0.011477 -0.016804
v -0.008929 0.017110 -0.029905
v -0.010288 0.016536 -0.030098
v -0.006112 0.014734 -0.016940
v -0.010654 0.011318 -0.016931
v -0.010914 0.014911 -0.027549
v -0.013145 0.013911 -0.029851
v -0.017027 0.006815 -0.030037
v -0.013295 0.007544 -0.016934
v -0.015003 0.010891 -0.029905
v -0.016454 0.007108 -0.028314
v -0.018144 0.002650 -0.030068
v -0.015206 0.003340 -0.016934
v -0.015545 0.002269 -0.016914
v -0.015578 -0.006508 -0.016950
v -0.016416 -0.005325 -0.019850
v -0.015188 -0.008719 -0.016927
v -0.017945 -0.001170 -0.027402
v -0.016414 -0.002312 -0.019850
v -0.017957 -0.007937 -0.028218
v -0.017970 -0.007935 -0.029650
v -0.016474 -0.011237 -0.025724
v -0.013532 -0.011973 -0.017114
v -0.015008 -0.013796 -0.026507
v -0.016134 -0.011935 -0.028358
v -0.017909 -0.008302 -0.029923
v -0.013162 -0.016089 -0.028646
v -0.012060 -0.016753 -0.026167
v -0.008865 -0.019290 -0.029898
v -0.009046 -0.019392 -0.028905
v -0.009850 -0.017093 -0.022457
v -0.005679 -0.020895 -0.027430
v -0.004697 -0.021270 -0.028225
v -0.000052 -0.021434 -0.028383
v 0.000678 -0.021655 -0.026062
v -0.003888 -0.021247 -0.026633
v -0.000649 -0.021269 -0.028546
v 0.001171 -0.016119 -0.029729
v 0.006941 -0.006077 -0.030003
v 0.005934 -0.008675 -0.029885
v 0.001766 -0.020479 -0.026331
v 0.001147 -0.021150 -0.027321
v 0.001851 -0.019993 -0.023612
v 0.006928 -0.007975 -0.016814
v 0.006701 -0.006780 -0.028080
v 0.001772 -0.017771 -0.016908
v 0.003183 -0.015610 -0.016909
v -0.012251 -0.013531 -0.016940
v -0.001644 -0.018113 -0.016978
v 0.000131 -0.018280 -0.017179
v -0.000533 -0.021258 -0.024605
v -0.009263 -0.015427 -0.016965
v -0.005831 -0.016962 -0.016970
v -0.013534 -0.014518 -0.023256
vn 0.3713 0.9128 0.1704
vn 0.3712 0.9128 0.1705
vn 0.3713 0.9127 0.1705
vn 0.3392 0.9368 0.0854
vn 0.4162 0.9003 0.1275
vn 0.3125 0.9441 0.1051
vn 0.3277 0.9093 0.2564
vn 0.1865 0.9576 0.2194
vn 0.2424 0.9662 0.0874
vn 0.3113 0.9461 0.0893
vn -0.0085 -0.0009 1.0000
vn -0.1032 0.9775 0.1842
vn 0.0882 0.2257 0.9702
vn -0.0053 0.9908 0.1353
vn 0.2284 0.5831 0.7797
vn 0.0092 0.2995 -0.9541
vn 0.0165 0.3878 -0.9216
vn -0.4072 0.8786 0.2495
vn -0.4111 0.8766 0.2500
vn -0.1288 0.1738 0.9763
vn -0.5777 0.7688 0.2743
vn -0.6341 0.7132 0.2989
vn -0.6309 0.7152 0.3009
vn -0.6100 0.7460 0.2674
vn -0.2148 0.1428 -0.9662
vn -0.1179 0.0904 -0.9889
vn -0.7905 0.5529 0.2634
vn -0.8289 0.5055 0.2396
vn -0.8767 0.4285 0.2187
vn -0.8738 0.4305 0.2261
vn -0.9312 0.2477 0.2676
vn -0.9402 0.2801 0.1939
vn -0.8858 0.4027 0.2305
vn -0.9329 0.2987 0.2012
vn -0.9604 0.0025 0.2786
vn -0.0796 -0.0038 0.9968
vn -0.9592 0.0008 0.2827
vn 0.0569 0.0007 0.9984
vn -0.9770 0.0855 0.1955
vn -0.9771 0.0532 0.2061
vn -0.9800 0.0008 0.1988
vn -0.9978 -0.0061 0.0658
vn -0.9821 -0.0208 0.1874
vn -0.9998 -0.0160 0.0093
vn -0.9142 -0.4051 0.0078
vn -0.9412 -0.2624 0.2127
vn -0.9620 -0.1541 0.2253
vn -0.9080 -0.4189 -0.0062
vn -0.8560 -0.4503 0.2540
vn -0.8120 -0.5358 0.2316
vn -0.8648 -0.5016 0.0213
vn -0.9081 -0.3364 0.2494
vn -0.7730 -0.5287 -0.3506
vn -0.8131 -0.5759 -0.0848
vn -0.7096 -0.6925 0.1295
vn -0.6219 -0.7802 0.0670
vn -0.5404 -0.4464 -0.7133
vn -0.6216 -0.7598 -0.1903
vn -0.5138 -0.8264 0.2305
vn -0.3702 -0.9150 -0.1604
vn -0.4816 -0.8428 0.2404
vn -0.3899 -0.9196 -0.0473
vn -0.0379 -0.9958 -0.0831
vn -0.0486 -0.7855 -0.6169
vn -0.0967 -0.9933 0.0635
vn -0.0554 -0.7100 -0.7020
vn -0.2513 -0.9575 0.1416
vn 0.0969 -0.2554 -0.9620
vn 0.1795 -0.2802 -0.9430
vn 0.0310 -0.0450 -0.9985
vn 0.0969 -0.0827 -0.9919
vn 0.4681 -0.3167 -0.8250
vn 0.9230 -0.3637 -0.1258
vn 0.8753 -0.3936 -0.2811
vn 0.6612 -0.3859 -0.6434
vn 0.3975 -0.8932 -0.2103
vn 0.7341 -0.6790 0.0007
vn 0.7415 -0.6641 0.0958
vn 0.9108 -0.4103 0.0451
vn 0.9371 -0.3446 -0.0555
vn 0.9405 -0.3396 -0.0066
vn 0.8704 -0.4874 -0.0693
vn -0.0173 -0.0005 0.9998
vn 1.0000 -0.0011 0.0008
vn 0.0780 -0.0506 0.9957
vn 0.8918 -0.4389 0.1097
vn 0.8224 -0.5371 0.1877
vn -0.0025 -0.0007 1.0000
vn -0.0159 -0.0453 0.9988
vn -0.0049 -0.0027 1.0000
vn 0.0399 -0.5666 0.8230
vn 0.5569 -0.7864 0.2672
vn 0.2222 -0.9068 0.3583
vn 0.1288 -0.9243 0.3592
vn -0.0444 -0.9258 0.3753
vn -0.1094 -0.9783 0.1758
vn -0.2120 -0.9140 0.3460
vn -0.0068 -0.0243 0.9997
vn 0.0033 0.0046 1.0000
vn -0.2475 -0.9032 0.3507
vn -0.3865 -0.8651 0.3196
vn -0.3211 -0.8880 0.3292
vn -0.5094 -0.8069 0.2992
vn -0.4175 -0.8562 0.3043
vn 0.0052 0.0006 1.0000
vn -0.4561 -0.2806 0.8445
vn -0.5612 -0.7850 0.2625
vn -0.6335 -0.7345 0.2434
vn -0.7618 -0.5984 0.2482
vn -0.7077 -0.6861 0.1687
vn -0.7919 -0.5641 0.2340
vn -0.0020 -0.0058 -1.0000
vn -0.0019 -0.0057 -1.0000
vn 1.0000 -0.0028 0.0031
vn -0.0010 -0.0056 -1.0000
vn 0.0221 0.0016 -0.9998
vn -0.0138 -0.0136 -0.9998
vn -0.9818 -0.0236 -0.1882
vn -0.9632 -0.1675 0.2101
vn -0.0072 0.0037 1.0000
vn -0.0073 0.0038 1.0000
vn -0.0023 0.0009 1.0000
vn 0.0090 0.0595 -0.9982
vn 0.6982 0.7065 0.1154
s 0
f 1//1 3//1 2//1
f 1//2 2//2 4//2
f 3//3 1//3 4//3
f 6//4 3//4 4//4
f 2//5 5//5 4//5
f 5//6 6//6 4//6
f 5//7 7//7 6//7
f 7//8 8//8 6//8
f 8//9 9//9 6//9
f 9//10 3//10 6//10
f 10//11 11//11 9//11
f 12//12 10//12 9//12
f 9//13 11//13 2//13
f 8//14 12//14 9//14
f 3//15 9//15 2//15
f 7//16 13//16 12//16
f 8//17 7//17 12//17
f 12//18 13//18 14//18
f 10//19 12//19 14//19
f 15//20 10//20 14//20
f 16//21 15//21 14//21
f 13//22 16//22 14//22
f 13//23 17//23 16//23
f 17//24 15//24 16//24
f 13//25 18//25 17//25
f 17//26 18//26 20//26
f 15//27 17//27 19//27
f 19//28 17//28 20//28
f 18//29 21//29 20//29
f 21//30 19//30 20//30
f 18//31 22//31 21//31
f 21//32 22//32 24//32
f 23//33 19//33 21//33
f 23//34 21//34 24//34
f 24//35 26//35 25//35
f 27//36 24//36 25//36
f 24//37 29//37 26//37
f 27//38 23//38 24//38
f 22//39 28//39 24//39
f 28//40 29//40 24//40
f 29//41 28//41 26//41
f 22//42 30//42 28//42
f 28//43 30//43 26//43
f 31//44 30//44 22//44
f 30//45 31//45 32//45
f 27//46 30//46 32//46
f 30//47 27//47 26//47
f 32//48 31//48 35//48
f 27//49 32//49 33//49
f 32//50 34//50 33//50
f 34//51 32//51 35//51
f 31//52 36//52 35//52
f 36//53 37//53 35//53
f 37//54 34//54 35//54
f 38//55 34//55 37//55
f 38//56 37//56 40//56
f 36//57 39//57 37//57
f 37//58 39//58 40//58
f 41//59 38//59 40//59
f 40//60 39//60 43//60
f 42//61 41//61 40//61
f 42//62 40//62 43//62
f 44//63 45//63 43//63
f 44//64 43//64 47//64
f 43//65 45//65 46//65
f 43//66 39//66 47//66
f 42//67 43//67 46//67
f 39//68 48//68 47//68
f 48//69 44//69 47//69
f 39//70 49//70 48//70
f 48//71 49//71 50//71
f 44//72 48//72 50//72
f 49//73 51//73 50//73
f 51//74 52//74 50//74
f 52//75 44//75 50//75
f 45//76 44//76 52//76
f 51//77 45//77 52//77
f 45//78 51//78 53//78
f 51//79 54//79 53//79
f 54//80 51//80 55//80
f 51//81 49//81 55//81
f 49//82 54//82 55//82
f 11//83 56//83 54//83
f 49//84 11//84 54//84
f 54//85 56//85 57//85
f 53//86 54//86 57//86
f 56//87 53//87 57//87
f 56//88 23//88 58//88
f 56//89 58//89 59//89
f 23//90 56//90 11//90
f 56//91 59//91 60//91
f 56//92 45//92 53//92
f 45//93 56//93 60//93
f 61//94 45//94 60//94
f 59//95 61//95 60//95
f 45//96 61//96 46//96
f 61//97 59//97 46//97
f 59//98 58//98 62//98
f 59//99 62//99 63//99
f 59//100 63//100 46//100
f 62//101 42//101 63//101
f 63//102 42//102 46//102
f 62//103 58//103 41//103
f 42//104 62//104 41//104
f 58//105 23//105 27//105
f 58//106 27//106 33//106
f 58//107 38//107 41//107
f 38//108 58//108 64//108
f 58//109 33//109 64//109
f 34//110 38//110 64//110
f 33//111 34//111 64//111
f 13//112 5//112 49//112
f 13//113 49//113 39//113
f 49//114 5//114 11//114
f 13//115 39//115 18//115
f 18//116 39//116 22//116
f 22//117 39//117 36//117
f 31//118 22//118 36//118
f 26//119 27//119 25//119
f 23//120 11//120 10//120
f 23//121 10//121 15//121
f 23//122 15//122 19//122
f 5//123 13//123 7//123
f 11//124 5//124 2//124
o convex_1.009
v -0.014774 0.003548 0.042733
v -0.012912 0.007077 0.031927
v -0.014437 0.007123 0.047381
v -0.014830 0.006562 0.057139
v -0.014809 0.002914 0.056838
v -0.014425 0.001890 0.042306
v -0.013112 -0.001238 0.031215
v -0.013126 0.006527 0.031271
v -0.011708 0.008973 0.031273
v 0.003175 0.014955 0.031220
v -0.001189 -0.008223 0.031214
v -0.010225 -0.004447 0.031208
v -0.007107 0.013028 0.031513
v -0.011518 0.010314 0.038863
v -0.002734 0.014964 0.031250
v -0.003745 0.014734 0.033414
v -0.001186 0.015867 0.047353
v -0.005230 0.014755 0.042316
v -0.001162 0.016016 0.057732
v 0.000879 0.015874 0.047732
v 0.004782 0.014475 0.042286
v 0.000483 0.015941 0.057888
v 0.003719 0.014632 0.057669
v 0.000564 0.016004 0.057786
v -0.014035 0.001105 0.057889
v 0.009475 0.005360 0.057866
v -0.008354 0.013391 0.057682
v -0.012571 0.010578 0.057870
v -0.012701 0.010708 0.057266
v -0.014561 0.007570 0.057354
v -0.011269 0.011748 0.051247
v -0.012636 0.010367 0.050102
v -0.005267 0.014802 0.057517
v -0.000070 -0.006361 0.057920
v 0.006622 0.011645 0.057368
v 0.009512 0.005296 0.057598
v 0.006932 -0.003806 0.057874
v 0.009327 -0.000833 0.057655
v 0.009666 0.000540 0.057654
v 0.011021 0.001299 0.041832
v 0.011027 0.003023 0.041852
v 0.011045 -0.000889 0.036021
v 0.011071 -0.001305 0.032014
v 0.009795 -0.004255 0.031214
v 0.008863 -0.003685 0.044537
v 0.007080 -0.003946 0.057202
v 0.008005 -0.006390 0.031193
v 0.004324 -0.008031 0.032365
v 0.004544 -0.006125 0.052292
v 0.002003 -0.006495 0.056767
v 0.001443 -0.007985 0.038332
v 0.000012 -0.006447 0.056912
v -0.005618 -0.004615 0.057109
v -0.002183 -0.007634 0.032130
v -0.006376 -0.006115 0.031841
v -0.011372 -0.001621 0.057365
v -0.012716 -0.000472 0.056911
v -0.014126 0.001244 0.057606
v -0.012629 -0.001719 0.036821
v 0.008253 0.010186 0.031230
v 0.011259 0.003796 0.031211
v 0.008032 0.010078 0.051183
v 0.009515 0.006734 0.050786
v 0.005271 0.013560 0.031245
vn -0.9189 0.3933 -0.0299
vn -0.9714 0.2171 -0.0965
vn -0.9903 0.1352 -0.0322
vn -1.0000 -0.0056 -0.0027
vn -0.9791 -0.2029 -0.0116
vn -0.9798 -0.1900 -0.0624
vn -0.9898 -0.0008 -0.1425
vn -0.0115 0.0072 -0.9999
vn -0.8568 0.4970 -0.1371
vn -0.0050 0.0036 -1.0000
vn -0.0039 0.0010 -1.0000
vn 0.0029 0.0052 -1.0000
vn 0.0032 0.0052 -1.0000
vn -0.1661 0.2451 -0.9552
vn -0.6533 0.7481 -0.1159
vn -0.8528 0.5175 -0.0701
vn 0.0012 0.9984 -0.0561
vn -0.4078 0.9082 -0.0939
vn -0.2770 0.9605 -0.0272
vn -0.2194 0.9749 -0.0390
vn -0.2495 0.9683 -0.0134
vn -0.0008 0.9999 -0.0144
vn 0.0066 0.9985 -0.0546
vn 0.3463 0.9381 0.0073
vn 0.3289 0.9443 -0.0068
vn 0.0463 0.9989 -0.0048
vn -0.3165 -0.6705 -0.6710
vn 0.3758 0.9265 0.0165
vn 0.0106 -0.8515 -0.5242
vn 0.0058 0.0012 1.0000
vn -0.0003 0.0072 1.0000
vn 0.0633 0.0604 0.9962
vn -0.0310 0.0658 0.9974
vn -0.0550 0.1484 0.9874
vn -0.5230 0.8033 0.2849
vn -0.8216 0.4948 0.2830
vn -0.3231 0.0519 0.9449
vn -0.9645 0.2629 -0.0238
vn -0.8602 0.5088 -0.0335
vn -0.6486 0.0102 0.7611
vn -0.6929 0.7199 -0.0405
vn -0.5265 0.8499 0.0216
vn -0.8624 0.5052 -0.0318
vn -0.6786 0.7311 -0.0710
vn -0.8352 0.5433 -0.0857
vn -0.8396 0.5366 -0.0844
vn -0.6141 0.7853 -0.0786
vn -0.4173 0.9078 -0.0427
vn -0.4503 0.8929 -0.0039
vn -0.5039 0.8623 -0.0503
vn -0.2018 0.5373 0.8189
vn -0.2835 0.9590 -0.0036
vn 0.0070 -0.0011 1.0000
vn 0.0002 0.0045 1.0000
vn 0.3204 0.2185 0.9217
vn 0.9094 0.4150 0.0269
vn 0.9912 0.0336 0.1282
vn 0.1365 -0.0371 0.9899
vn 0.1534 -0.0374 0.9875
vn 0.9793 -0.1879 0.0748
vn 0.9964 -0.0044 0.0851
vn 0.9953 0.0333 0.0909
vn 0.9679 -0.2392 0.0775
vn 0.9119 -0.4076 0.0482
vn 0.9999 -0.0084 0.0073
vn 0.8907 -0.4472 0.0815
vn 0.8797 -0.4702 0.0711
vn 0.7998 -0.5918 0.1004
vn 0.7338 -0.6735 0.0894
vn 0.7635 -0.6407 0.0808
vn 0.1539 -0.7792 -0.6076
vn -0.0050 0.0137 -0.9999
vn 0.4273 -0.9004 0.0814
vn 0.5327 -0.8406 0.0979
vn 0.4303 -0.8863 0.1711
vn 0.2932 -0.9520 0.0878
vn 0.4129 -0.8690 0.2725
vn 0.1404 -0.9872 0.0755
vn -0.0182 -0.9965 0.0811
vn -0.0180 -0.9963 0.0835
vn 0.2800 -0.7564 0.5911
vn -0.1093 -0.9913 0.0736
vn -0.3072 -0.9500 0.0560
vn -0.3064 -0.9491 0.0726
vn -0.4509 -0.8888 0.0825
vn -0.3437 -0.9367 0.0660
vn -0.3456 -0.9139 0.2129
vn -0.4061 -0.9114 0.0663
vn -0.3841 -0.9191 -0.0878
vn -0.4575 -0.8860 0.0756
vn -0.3059 -0.6477 0.6978
vn -0.1995 -0.3694 0.9076
vn -0.7214 -0.6845 -0.1045
vn -0.6591 -0.7502 0.0521
vn -0.6765 -0.6749 0.2946
vn -0.9373 -0.3176 0.1435
vn -0.9258 -0.3779 0.0022
vn -0.7649 -0.6431 0.0366
vn -0.9201 -0.3916 0.0015
vn -0.8219 -0.5692 0.0220
vn -0.7434 -0.6688 0.0066
vn -0.7065 -0.7066 0.0408
vn 0.0301 -0.9993 0.0223
vn 0.7557 -0.5874 0.2895
vn -0.0002 0.0003 -1.0000
vn 0.0033 0.0015 -1.0000
vn -0.0050 0.0006 -1.0000
vn 0.7282 -0.1327 -0.6724
vn 0.9048 0.4256 0.0124
vn 0.9149 0.4032 0.0210
vn 0.9565 0.2889 0.0419
vn 0.9998 -0.0036 0.0216
vn 0.9993 -0.0346 0.0143
vn 0.9146 0.3957 0.0838
vn 0.9641 0.2599 0.0552
vn 0.7923 0.6100 0.0121
vn 0.7832 0.6214 0.0210
vn 0.9041 0.4152 0.1008
vn 0.0364 0.0368 -0.9987
vn 0.7491 0.6621 -0.0217
vn 0.5539 0.8314 -0.0444
vn 0.7186 0.6941 0.0426
vn -0.8430 -0.0491 0.5357
vn -0.4187 0.9053 -0.0720
s 0
f 65//125 66//125 72//125
f 66//126 65//126 67//126
f 67//127 65//127 68//127
f 65//128 69//128 68//128
f 69//129 65//129 70//129
f 65//130 71//130 70//130
f 71//131 65//131 72//131
f 73//132 71//132 72//132
f 66//133 73//133 72//133
f 74//134 73//134 79//134
f 74//135 75//135 73//135
f 73//136 75//136 76//136
f 73//137 76//137 71//137
f 73//138 77//138 79//138
f 77//139 73//139 78//139
f 73//140 66//140 78//140
f 74//141 79//141 81//141
f 77//142 80//142 79//142
f 79//143 80//143 81//143
f 80//144 82//144 81//144
f 82//145 83//145 81//145
f 83//146 84//146 81//146
f 84//147 74//147 81//147
f 85//148 84//148 86//148
f 85//149 74//149 84//149
f 84//150 83//150 86//150
f 88//151 87//151 86//151
f 87//152 85//152 86//152
f 83//153 88//153 86//153
f 89//154 88//154 92//154
f 89//155 90//155 88//155
f 90//156 87//156 88//156
f 83//157 91//157 88//157
f 88//158 91//158 92//158
f 91//159 93//159 92//159
f 93//160 94//160 92//160
f 94//161 89//161 92//161
f 94//162 67//162 68//162
f 94//163 93//163 67//163
f 89//164 94//164 68//164
f 93//165 95//165 96//165
f 93//166 91//166 95//166
f 67//167 93//167 96//167
f 95//168 78//168 96//168
f 78//169 66//169 96//169
f 66//170 67//170 96//170
f 95//171 77//171 78//171
f 95//172 91//172 97//172
f 82//173 95//173 97//173
f 82//174 77//174 95//174
f 91//175 83//175 97//175
f 83//176 82//176 97//176
f 90//177 98//177 101//177
f 98//178 90//178 89//178
f 87//179 90//179 99//179
f 99//180 90//180 100//180
f 100//181 90//181 103//181
f 102//182 90//182 101//182
f 90//183 102//183 103//183
f 104//184 103//184 106//184
f 104//185 105//185 103//185
f 105//186 100//186 103//186
f 103//187 102//187 106//187
f 108//188 107//188 106//188
f 107//189 104//189 106//189
f 109//190 108//190 106//190
f 102//191 109//191 106//191
f 102//192 110//192 109//192
f 110//193 111//193 109//193
f 111//194 108//194 109//194
f 112//195 75//195 111//195
f 75//196 108//196 111//196
f 112//197 111//197 113//197
f 111//198 110//198 113//198
f 110//199 114//199 113//199
f 114//200 112//200 113//200
f 114//201 110//201 101//201
f 112//202 114//202 115//202
f 115//203 114//203 116//203
f 114//204 98//204 116//204
f 98//205 114//205 101//205
f 75//206 115//206 116//206
f 98//207 117//207 116//207
f 116//208 117//208 118//208
f 75//209 116//209 118//209
f 117//210 119//210 118//210
f 119//211 75//211 118//211
f 117//212 76//212 119//212
f 76//213 75//213 119//213
f 76//214 117//214 120//214
f 117//215 98//215 120//215
f 98//216 89//216 120//216
f 120//217 89//217 122//217
f 121//218 76//218 120//218
f 121//219 120//219 122//219
f 89//220 69//220 122//220
f 122//221 69//221 70//221
f 123//222 121//222 122//222
f 71//223 122//223 70//223
f 71//224 123//224 122//224
f 71//225 76//225 123//225
f 76//226 121//226 123//226
f 75//227 112//227 115//227
f 110//228 102//228 101//228
f 75//229 74//229 108//229
f 108//230 74//230 124//230
f 108//231 124//231 125//231
f 108//232 125//232 107//232
f 124//233 126//233 125//233
f 125//234 126//234 127//234
f 105//235 125//235 127//235
f 105//236 104//236 125//236
f 125//237 104//237 107//237
f 126//238 100//238 127//238
f 100//239 105//239 127//239
f 126//240 124//240 85//240
f 126//241 85//241 99//241
f 126//242 99//242 100//242
f 124//243 74//243 128//243
f 85//244 124//244 128//244
f 74//245 85//245 128//245
f 85//246 87//246 99//246
f 69//247 89//247 68//247
f 80//248 77//248 82//248
o convex_1.010
v 0.002799 0.014712 0.024008
v 0.002860 0.013794 0.000508
v 0.004877 0.013250 0.003430
v 0.003169 0.014940 0.030013
v -0.002691 0.014936 0.030003
v -0.000089 0.014694 0.021686
v -0.003079 0.013785 0.000491
v -0.013077 0.004146 0.000475
v -0.010114 0.008976 0.000511
v -0.007518 0.011564 0.000502
v -0.005552 0.013233 0.022070
v -0.008673 0.011944 0.029989
v -0.013092 -0.001288 0.029997
v 0.011306 -0.001738 0.029952
v 0.008302 0.010167 0.029951
v -0.013073 0.006466 0.030010
v -0.011475 0.008841 0.029622
v -0.009609 0.010662 0.024404
v 0.005272 0.013541 0.029980
v 0.011298 0.003803 0.029954
v 0.009208 0.008903 0.028181
v 0.011078 0.005160 0.025090
v 0.012620 0.003643 0.004926
v 0.010782 0.007313 0.006477
v 0.006600 0.011862 0.025540
v 0.010984 0.007441 0.000488
v 0.006461 0.011986 0.000512
v 0.013204 0.002268 0.000483
v 0.002435 -0.012888 0.000464
v 0.012853 -0.005474 0.000454
v 0.012962 0.000450 0.016153
v 0.012595 0.002184 0.018476
v 0.012653 -0.005408 0.001805
v 0.012610 -0.002806 0.013030
v 0.010757 -0.003011 0.028862
v 0.008010 -0.006499 0.029927
v 0.009301 -0.005968 0.025801
v 0.010790 -0.006047 0.014564
v 0.008985 -0.008995 0.009519
v 0.008294 -0.009703 0.007639
v 0.007543 -0.007749 0.024249
v 0.005828 -0.007947 0.029932
v 0.005738 -0.010783 0.009501
v 0.003156 -0.010740 0.016079
v 0.002816 -0.012279 0.005626
v 0.004863 -0.011608 0.002292
v 0.002180 -0.010716 0.017228
v -0.000080 -0.012891 0.000486
v -0.001866 -0.012287 0.004852
v -0.009055 -0.009494 0.000461
v -0.007133 -0.009238 0.010655
v -0.006876 -0.006398 0.029920
v -0.002262 -0.012527 0.000487
v -0.001207 -0.008296 0.029918
v 0.000327 -0.009165 0.025370
v -0.002672 -0.007932 0.029915
v 0.004814 -0.008288 0.029930
v -0.009692 -0.007777 0.011848
v -0.009775 -0.004789 0.029710
v -0.011919 -0.003988 0.023480
v -0.012546 -0.003414 0.022370
v -0.011488 -0.005583 0.014982
v -0.012624 -0.005256 0.000425
v -0.013075 -0.004824 0.000471
vn 0.0251 0.9989 -0.0390
vn 0.3087 0.9505 -0.0363
vn 0.1989 0.9788 -0.0494
vn -0.0006 0.9993 -0.0379
vn 0.0137 0.9996 -0.0248
vn -0.0014 0.9991 -0.0427
vn -0.0303 0.9988 -0.0386
vn 0.0029 -0.0013 -1.0000
vn -0.0137 0.0159 -0.9998
vn -0.0016 -0.0019 -1.0000
vn -0.4472 0.8940 -0.0284
vn -0.4510 0.8921 -0.0289
vn -0.4432 0.8959 -0.0289
vn -0.4470 0.8940 -0.0307
vn 0.0069 -0.0018 1.0000
vn 0.0018 -0.0001 1.0000
vn 0.0024 0.0007 1.0000
vn 0.0015 -0.0075 1.0000
vn -0.6573 0.5299 0.5359
vn -0.7401 0.6718 -0.0302
vn -0.7230 0.6898 -0.0372
vn -0.7058 0.7076 -0.0350
vn -0.7420 0.6697 -0.0316
vn -0.8516 0.5229 -0.0374
vn -0.8322 0.5528 -0.0433
vn -1.0000 0.0025 -0.0000
vn -0.0021 -0.0004 1.0000
vn 0.0017 -0.0071 1.0000
vn 0.7401 0.6656 -0.0967
vn 0.8936 0.4207 0.1568
vn 0.7586 0.6513 -0.0195
vn 0.9143 0.3990 0.0700
vn 0.9060 0.4217 0.0375
vn 0.8992 0.4363 0.0332
vn 0.7477 0.6641 0.0056
vn 0.6243 0.7812 0.0004
vn 0.7600 0.6497 -0.0184
vn 0.8132 0.5806 0.0399
vn 0.7088 0.7054 -0.0004
vn 0.0073 0.0123 -0.9999
vn 0.4442 0.8846 -0.1421
vn 0.9190 0.3943 -0.0013
vn -0.0022 0.0001 -1.0000
vn 0.9000 0.4340 0.0397
vn -0.0038 0.0039 -1.0000
vn 0.0004 0.0010 -1.0000
vn 0.0005 0.0026 -1.0000
vn 0.9989 -0.0453 0.0101
vn 0.9860 0.1630 0.0341
vn 0.9544 0.2965 0.0337
vn 0.9921 0.0737 0.1017
vn 0.9344 0.3518 0.0560
vn 0.9251 0.3774 0.0423
vn 0.8938 -0.4216 0.1529
vn 0.9928 0.0014 0.1194
vn 0.9780 -0.1895 0.0873
vn 0.9892 -0.1422 0.0367
vn 0.8810 -0.4630 0.0971
vn 0.9030 -0.4178 0.1003
vn 0.8725 -0.4776 0.1034
vn 0.7967 -0.5528 0.2444
vn 0.7988 -0.5754 0.1758
vn 0.8388 -0.5321 0.1149
vn 0.7579 -0.6439 0.1050
vn 0.7804 -0.6198 0.0829
vn 0.7064 -0.7078 0.0068
vn 0.5272 -0.8408 0.1227
vn 0.6486 -0.7505 0.1269
vn 0.6580 -0.7449 0.1099
vn 0.4615 -0.8784 0.1242
vn 0.5479 -0.8253 0.1367
vn 0.4896 -0.8640 0.1177
vn 0.3134 -0.9408 0.1292
vn 0.3117 -0.9415 0.1285
vn 0.3939 -0.9174 0.0572
vn 0.4209 -0.9056 0.0526
vn 0.4198 -0.9044 0.0758
vn 0.5685 -0.7991 -0.1955
vn 0.5923 -0.8001 -0.0950
vn 0.1410 -0.9801 0.1398
vn -0.0202 -0.9910 0.1324
vn -0.0197 -0.9914 0.1291
vn 0.0020 -0.9931 0.1170
vn -0.1638 -0.9841 0.0691
vn -0.1124 -0.9805 0.1612
vn -0.4065 -0.9095 0.0869
vn -0.4131 -0.9051 0.1006
vn -0.3759 -0.9160 0.1401
vn -0.3388 -0.9288 0.1505
vn -0.2385 -0.9581 0.1588
vn -0.0863 -0.9835 0.1588
vn -0.0105 -0.0321 0.9994
vn 0.0009 -0.9822 0.1880
vn 0.0016 -0.9823 0.1874
vn 0.3159 -0.9401 0.1286
vn -0.0019 -0.0004 1.0000
vn 0.1576 -0.9755 0.1538
vn -0.0080 -0.0248 0.9997
vn 0.0017 -0.0083 1.0000
vn -0.0018 -0.0016 1.0000
vn -0.0025 -0.0140 -0.9999
vn -0.2306 -0.2944 0.9275
vn -0.4423 -0.8864 0.1366
vn -0.4882 -0.8611 0.1418
vn -0.6420 -0.7567 0.1236
vn -0.7106 -0.6860 0.1563
vn -0.7758 -0.6199 0.1172
vn -0.6972 -0.7101 0.0979
vn -0.7507 -0.6551 0.0848
vn -0.7424 -0.6686 0.0430
vn -0.8181 -0.5728 0.0510
vn -0.6867 -0.7242 0.0633
vn 0.4554 0.3905 0.8001
vn -0.7639 -0.6430 0.0542
vn -0.9118 -0.4077 0.0483
vn -1.0000 -0.0002 -0.0005
vn -0.0019 0.0004 -1.0000
vn -0.4544 -0.8842 0.1078
vn 0.0036 0.0021 -1.0000
vn -0.0088 -0.0074 -0.9999
vn 0.0101 -0.0121 0.9999
vn 0.7864 -0.6002 0.1458
vn -0.0016 -0.0260 0.9997
vn 0.5535 0.8327 -0.0174
s 0
f 129//249 130//249 134//249
f 130//250 129//250 131//250
f 131//251 129//251 132//251
f 129//252 133//252 132//252
f 133//253 129//253 134//253
f 130//254 135//254 134//254
f 135//255 133//255 134//255
f 130//256 136//256 135//256
f 135//257 136//257 137//257
f 135//258 137//258 138//258
f 135//259 138//259 139//259
f 133//260 135//260 139//260
f 138//261 140//261 139//261
f 140//262 133//262 139//262
f 141//263 140//263 144//263
f 141//264 142//264 140//264
f 140//265 142//265 143//265
f 140//266 143//266 133//266
f 144//267 140//267 145//267
f 145//268 140//268 146//268
f 140//269 138//269 146//269
f 138//270 137//270 146//270
f 137//271 145//271 146//271
f 137//272 136//272 145//272
f 136//273 144//273 145//273
f 136//274 141//274 144//274
f 143//275 142//275 148//275
f 133//276 143//276 147//276
f 147//277 143//277 149//277
f 143//278 148//278 149//278
f 147//279 149//279 153//279
f 149//280 148//280 150//280
f 151//281 149//281 150//281
f 149//282 151//282 152//282
f 149//283 152//283 153//283
f 155//284 131//284 153//284
f 131//285 147//285 153//285
f 152//286 154//286 153//286
f 154//287 155//287 153//287
f 154//288 130//288 155//288
f 130//289 131//289 155//289
f 156//290 154//290 151//290
f 156//291 130//291 154//291
f 151//292 154//292 152//292
f 157//293 156//293 158//293
f 157//294 136//294 156//294
f 156//295 136//295 130//295
f 158//296 156//296 159//296
f 156//297 160//297 159//297
f 160//298 156//298 151//298
f 160//299 148//299 159//299
f 148//300 160//300 150//300
f 160//301 151//301 150//301
f 158//302 159//302 161//302
f 148//303 142//303 159//303
f 159//304 142//304 162//304
f 161//305 159//305 162//305
f 142//306 163//306 162//306
f 163//307 161//307 162//307
f 161//308 163//308 166//308
f 163//309 142//309 164//309
f 165//310 163//310 164//310
f 163//311 165//311 166//311
f 165//312 167//312 166//312
f 167//313 161//313 166//313
f 167//314 168//314 161//314
f 168//315 167//315 169//315
f 167//316 165//316 169//316
f 165//317 164//317 169//317
f 171//318 168//318 169//318
f 164//319 170//319 169//319
f 170//320 171//320 169//320
f 170//321 172//321 171//321
f 172//322 173//322 171//322
f 171//323 173//323 174//323
f 168//324 171//324 174//324
f 173//325 157//325 174//325
f 157//326 158//326 174//326
f 158//327 168//327 174//327
f 172//328 175//328 173//328
f 175//329 177//329 173//329
f 177//330 176//330 173//330
f 176//331 157//331 173//331
f 176//332 177//332 181//332
f 177//333 175//333 183//333
f 177//334 178//334 181//334
f 178//335 177//335 179//335
f 177//336 180//336 179//336
f 180//337 177//337 184//337
f 177//338 182//338 184//338
f 182//339 177//339 183//339
f 182//340 180//340 184//340
f 185//341 182//341 183//341
f 175//342 185//342 183//342
f 172//343 170//343 185//343
f 170//344 182//344 185//344
f 175//345 172//345 185//345
f 182//346 141//346 180//346
f 141//347 182//347 142//347
f 142//348 182//348 170//348
f 178//349 176//349 181//349
f 180//350 141//350 187//350
f 180//351 186//351 179//351
f 186//352 180//352 187//352
f 188//353 186//353 187//353
f 141//354 188//354 187//354
f 188//355 141//355 189//355
f 186//356 188//356 190//356
f 188//357 189//357 190//357
f 191//358 186//358 190//358
f 189//359 191//359 190//359
f 192//360 191//360 189//360
f 192//361 178//361 191//361
f 178//362 186//362 191//362
f 141//363 192//363 189//363
f 141//364 136//364 192//364
f 136//365 178//365 192//365
f 186//366 178//366 179//366
f 136//367 176//367 178//367
f 157//368 176//368 136//368
f 142//369 170//369 164//369
f 168//370 158//370 161//370
f 133//371 147//371 132//371
f 147//372 131//372 132//372
o convex_1.011
v 0.004253 -0.014342 -0.015986
v 0.004169 -0.014999 -0.014073
v 0.007376 -0.007986 -0.016243
v 0.001838 -0.017608 -0.016294
v 0.000924 -0.017898 -0.016312
v 0.003848 -0.013916 -0.002745
v 0.004280 -0.014866 -0.009147
v 0.005307 -0.012713 -0.003329
v 0.004748 -0.013337 -0.002442
v 0.007381 -0.008343 -0.000742
v 0.002480 -0.013450 -0.000887
v -0.002319 -0.012691 -0.000896
v -0.000368 -0.013898 -0.002418
v 0.002528 -0.013884 -0.002022
v -0.000408 -0.017726 -0.016331
v -0.004946 -0.016783 -0.016278
v -0.004140 -0.016597 -0.015495
v -0.008270 -0.015085 -0.016112
v -0.009055 -0.010855 -0.002377
v -0.008364 -0.010862 -0.001704
v -0.010039 -0.010216 -0.002392
v -0.010965 -0.013768 -0.016298
v -0.009162 -0.010051 -0.000896
v -0.013133 -0.005215 -0.000791
v -0.011673 0.006739 -0.000825
v -0.013111 0.004142 -0.000769
v -0.014777 -0.001912 -0.010337
v -0.011449 -0.008783 -0.003458
v -0.012964 -0.011133 -0.016060
v -0.014616 -0.008666 -0.016292
v -0.014779 -0.002973 -0.011090
v -0.014774 -0.003805 -0.015248
v -0.014824 0.001903 -0.016175
v -0.014649 0.003320 -0.016253
v -0.006780 0.013851 -0.016248
v -0.011994 0.008631 -0.016250
v -0.009643 0.011505 -0.016117
v -0.011041 0.007709 -0.001792
v -0.010155 0.008970 -0.000798
v -0.007522 0.011593 -0.000787
v -0.003108 0.013797 -0.000773
v -0.005177 0.013230 -0.004126
v -0.006639 0.013276 -0.012266
v -0.004592 0.014753 -0.015821
v -0.000243 0.014934 -0.016249
v -0.001701 0.014694 -0.014179
v 0.002810 0.013780 -0.000746
v 0.006477 0.011942 -0.000747
v 0.006477 0.011942 -0.016241
v 0.002719 0.013833 -0.016220
v 0.007385 0.011054 -0.000707
v 0.007385 0.011054 -0.016280
v -0.012258 -0.012207 -0.016011
v 0.007146 -0.008316 -0.012954
vn 0.8005 -0.5766 -0.1632
vn 0.8899 -0.4419 -0.1129
vn 0.4608 -0.2607 -0.8483
vn 0.0220 -0.0073 -0.9997
vn 0.2922 -0.9328 0.2108
vn 0.4919 -0.8558 0.1602
vn 0.7451 -0.6670 0.0012
vn 0.7968 -0.5988 0.0810
vn 0.9123 -0.4094 -0.0095
vn 0.4954 -0.8538 0.1601
vn 0.3611 -0.8065 0.4681
vn 0.8446 -0.5054 0.1769
vn 0.5053 -0.5046 0.7001
vn -0.0055 -0.0230 0.9997
vn -0.1361 -0.8537 0.5027
vn -0.0440 -0.9339 0.3549
vn 0.1736 -0.9175 0.3578
vn -0.1269 -0.9512 0.2814
vn 0.1170 -0.9595 0.2564
vn -0.0316 -0.9637 0.2652
vn -0.1817 -0.8978 0.4012
vn 0.0540 0.3141 -0.9478
vn -0.2260 -0.9391 0.2590
vn -0.3658 -0.8952 0.2547
vn -0.3585 -0.7549 0.5492
vn -0.3163 -0.9069 0.2784
vn -0.3127 -0.8971 0.3120
vn -0.4093 -0.8140 0.4121
vn -0.4395 -0.8652 0.2413
vn -0.5077 -0.7721 0.3822
vn -0.5312 -0.8117 0.2427
vn -0.3112 -0.8070 0.5019
vn -0.0122 -0.0317 0.9994
vn -0.6808 -0.5690 0.4612
vn 0.0108 0.0015 0.9999
vn 0.0426 -0.0024 0.9991
vn -0.9854 0.0019 0.1704
vn -0.9860 -0.0955 0.1368
vn -0.7787 -0.5675 0.2676
vn -0.8207 -0.5357 0.1986
vn -0.8232 -0.5324 0.1973
vn -0.9817 -0.1430 0.1257
vn -1.0000 0.0028 -0.0016
vn -0.9994 -0.0338 0.0057
vn -0.9978 -0.0190 -0.0630
vn -1.0000 -0.0083 0.0027
vn -0.4176 0.0018 -0.9086
vn -0.9877 0.1270 0.0914
vn -0.9876 0.1274 0.0913
vn -0.0005 0.0009 -1.0000
vn -0.0037 0.0033 -1.0000
vn -0.8926 0.4462 0.0650
vn -0.2384 0.2384 -0.9415
vn -0.8502 0.5188 0.0891
vn -0.7729 0.6280 0.0909
vn -0.8723 0.4812 -0.0867
vn -0.8266 0.5622 0.0243
vn -0.8386 0.5413 0.0615
vn 0.0232 -0.0276 0.9994
vn -0.7030 0.7051 0.0932
vn 0.0014 -0.0090 1.0000
vn -0.4436 0.8877 0.1236
vn -0.4795 0.8728 0.0911
vn -0.5762 0.8139 0.0750
vn -0.4748 0.8755 0.0903
vn -0.4011 0.9045 0.1447
vn -0.6246 0.7695 0.1332
vn -0.4075 0.9079 0.0979
vn -0.0324 0.9952 0.0928
vn -0.1024 0.6175 -0.7799
vn -0.0166 0.9977 0.0650
vn 0.0025 0.9977 0.0670
vn -0.0462 0.9955 0.0832
vn -0.0046 -0.0096 0.9999
vn 0.4480 0.8940 -0.0000
vn 0.4495 0.8933 0.0004
vn 0.3485 0.9373 0.0012
vn 0.0523 0.1149 -0.9920
vn 0.0002 -0.0020 -1.0000
vn 0.0008 0.0017 -1.0000
vn 0.0019 0.0005 -1.0000
vn 0.0027 0.0002 -1.0000
vn -0.0451 -0.0020 -0.9990
vn 0.6995 0.7147 -0.0000
vn 1.0000 -0.0005 -0.0000
vn -0.0449 -0.0018 0.9990
vn 1.0000 -0.0002 -0.0003
vn -0.0156 -0.0005 0.9999
vn -0.0029 -0.0050 1.0000
vn -0.0034 -0.0032 1.0000
vn 0.0062 0.0055 -1.0000
vn -0.7271 -0.5198 -0.4485
vn -0.8242 -0.5339 0.1886
vn -0.7327 -0.6461 0.2138
vn -0.7709 -0.6002 0.2133
vn -0.8228 -0.5326 0.1982
vn -0.4422 -0.8814 0.1659
vn -0.3130 -0.8975 0.3105
vn -0.0041 0.0097 -0.9999
vn 0.7401 -0.6723 -0.0157
vn 0.9075 -0.4197 -0.0183
vn 0.9118 -0.4099 0.0226
vn 0.9141 -0.4054 -0.0106
s 0
f 193//373 194//373 196//373
f 193//374 195//374 194//374
f 195//375 193//375 196//375
f 197//376 195//376 196//376
f 198//377 197//377 196//377
f 199//378 198//378 196//378
f 194//379 199//379 196//379
f 199//380 200//380 201//380
f 200//381 199//381 194//381
f 198//382 199//382 201//382
f 203//383 198//383 201//383
f 200//384 202//384 201//384
f 202//385 203//385 201//385
f 202//386 204//386 203//386
f 204//387 205//387 203//387
f 203//388 205//388 206//388
f 198//389 203//389 206//389
f 207//390 197//390 206//390
f 197//391 198//391 206//391
f 205//392 207//392 206//392
f 209//393 208//393 207//393
f 208//394 197//394 207//394
f 205//395 209//395 207//395
f 210//396 209//396 211//396
f 210//397 208//397 209//397
f 209//398 205//398 211//398
f 205//399 212//399 211//399
f 212//400 215//400 211//400
f 214//401 210//401 211//401
f 215//402 213//402 211//402
f 213//403 214//403 211//403
f 212//404 204//404 215//404
f 204//405 216//405 215//405
f 216//406 213//406 215//406
f 204//407 217//407 216//407
f 216//408 217//408 218//408
f 216//409 218//409 219//409
f 216//410 219//410 223//410
f 213//411 216//411 220//411
f 220//412 216//412 221//412
f 216//413 222//413 221//413
f 222//414 216//414 223//414
f 219//415 224//415 223//415
f 224//416 222//416 223//416
f 222//417 224//417 225//417
f 224//418 219//418 225//418
f 226//419 222//419 225//419
f 218//420 226//420 225//420
f 219//421 218//421 225//421
f 227//422 226//422 228//422
f 227//423 222//423 226//423
f 226//424 218//424 228//424
f 229//425 227//425 228//425
f 228//426 218//426 230//426
f 229//427 228//427 230//427
f 218//428 217//428 230//428
f 230//429 217//429 231//429
f 229//430 230//430 231//430
f 217//431 232//431 231//431
f 232//432 229//432 231//432
f 217//433 233//433 232//433
f 232//434 233//434 234//434
f 232//435 234//435 235//435
f 229//436 232//436 235//436
f 234//437 236//437 235//437
f 236//438 227//438 235//438
f 227//439 229//439 235//439
f 233//440 236//440 234//440
f 237//441 236//441 238//441
f 237//442 227//442 236//442
f 236//443 233//443 238//443
f 233//444 239//444 238//444
f 239//445 237//445 238//445
f 233//446 240//446 239//446
f 240//447 241//447 239//447
f 239//448 241//448 242//448
f 237//449 239//449 242//449
f 241//450 237//450 242//450
f 241//451 227//451 237//451
f 241//452 222//452 227//452
f 222//453 241//453 208//453
f 208//454 241//454 195//454
f 195//455 241//455 244//455
f 241//456 243//456 244//456
f 241//456 240//456 243//456
f 243//457 195//457 244//457
f 240//458 202//458 243//458
f 202//459 195//459 243//459
f 240//460 204//460 202//460
f 204//461 240//461 217//461
f 217//462 240//462 233//462
f 222//463 208//463 214//463
f 245//464 222//464 214//464
f 222//465 245//465 221//465
f 213//466 245//466 214//466
f 245//467 213//467 220//467
f 245//468 220//468 221//468
f 208//469 210//469 214//469
f 205//470 204//470 212//470
f 208//471 195//471 197//471
f 195//472 202//472 246//472
f 202//473 200//473 246//473
f 194//474 195//474 246//474
f 200//475 194//475 246//475
o convex_1.013
v 0.011131 0.011337 -0.032259
v 0.021715 0.006760 -0.032944
v 0.011361 0.011411 -0.032172
v 0.007849 0.012836 -0.032126
v 0.015498 0.008100 -0.032838
v 0.015584 0.007180 -0.032844
v 0.008212 0.010593 -0.032315
v 0.007983 -0.000471 -0.029904
v 0.007974 -0.002273 -0.029003
v 0.007821 0.013322 -0.031474
v 0.018640 0.005692 -0.032851
v 0.013984 -0.001746 -0.029767
v 0.007935 -0.003631 -0.027867
v 0.016215 -0.001733 -0.029775
v 0.020102 0.003972 -0.032273
v 0.016598 -0.003133 -0.028613
v 0.021033 -0.003792 -0.026940
v 0.016623 -0.003802 -0.027788
v 0.022216 -0.002345 -0.028355
v 0.024435 -0.000707 -0.029195
v 0.024376 -0.000608 -0.029226
v 0.023793 -0.000904 -0.029206
v 0.021808 0.005670 -0.032886
v 0.024035 0.004362 -0.031274
v 0.023688 0.005763 -0.031195
v 0.023986 0.005131 -0.030468
v 0.024320 0.001106 -0.028602
v 0.016523 0.000372 -0.013990
v 0.024337 -0.000547 -0.028298
v 0.023988 0.004068 -0.029646
v 0.016163 0.001853 -0.013998
v 0.015402 0.004062 -0.013979
v 0.015218 -0.004882 -0.013954
v 0.016523 -0.000664 -0.013990
v 0.007846 -0.006425 -0.013805
v 0.008990 0.010419 -0.013950
v 0.012387 0.007811 -0.013972
v 0.017507 0.005787 -0.019751
v 0.016440 0.007590 -0.020356
v 0.019513 0.007236 -0.025155
v 0.019615 0.008265 -0.027596
v 0.021618 0.007131 -0.032648
v 0.013562 0.011660 -0.026584
v 0.016145 0.009044 -0.023189
v 0.014260 0.010554 -0.024122
v 0.012460 0.012022 -0.028722
v 0.007583 0.013148 -0.024662
v 0.007792 0.011604 -0.016098
v 0.007835 0.011049 -0.013988
v 0.007950 0.013393 -0.024641
v 0.007953 -0.006296 -0.015259
v 0.007865 0.011016 -0.013918
v 0.007674 -0.006040 -0.015256
v 0.018106 -0.004501 -0.026069
v 0.016673 -0.004503 -0.026037
v 0.007985 -0.004390 -0.024826
v 0.008424 -0.006290 -0.013887
v 0.017897 -0.004539 -0.019853
v 0.021289 -0.003806 -0.025609
v 0.015358 -0.004726 -0.013979
v 0.022200 -0.003226 -0.026277
v 0.015561 -0.004353 -0.014124
v 0.012062 0.011668 -0.031143
vn 0.0297 0.2148 -0.9762
vn 0.1604 0.4985 -0.8519
vn 0.1772 0.4650 -0.8674
vn 0.1015 0.3063 -0.9465
vn -0.0159 0.0051 -0.9999
vn -0.0716 -0.0001 -0.9974
vn -0.0453 0.0768 -0.9960
vn -0.8524 -0.0944 -0.5143
vn -0.1649 -0.2067 -0.9644
vn -0.0744 -0.4458 -0.8920
vn -0.9989 -0.0166 -0.0431
vn -0.9994 -0.0153 -0.0317
vn -0.1226 -0.2475 -0.9611
vn -0.0538 -0.3535 -0.9339
vn -0.0256 -0.6677 -0.7440
vn -0.0415 -0.6400 -0.7673
vn -0.0496 -0.3558 -0.9332
vn 0.0011 -0.6387 -0.7695
vn -0.0008 -0.4006 -0.9162
vn 0.1345 -0.7469 -0.6512
vn 0.1224 -0.7687 -0.6278
vn -0.0095 -0.7765 -0.6301
vn 0.1218 -0.6142 -0.7797
vn 0.4045 -0.7867 -0.4663
vn 0.1251 -0.6021 -0.7886
vn -0.0945 -0.3498 -0.9320
vn 0.3501 -0.7296 -0.5875
vn 0.1342 -0.4529 -0.8814
vn 0.1900 -0.4353 -0.8800
vn 0.1168 -0.4640 -0.8781
vn -0.0200 -0.0549 -0.9983
vn -0.0111 -0.0183 -0.9998
vn -0.0126 -0.3282 -0.9445
vn 0.4250 -0.3198 -0.8468
vn 0.5892 0.0077 -0.8079
vn -0.1670 -0.3854 -0.9075
vn 0.7061 0.2130 -0.6753
vn 0.9531 0.2461 -0.1763
vn 0.9970 0.0770 -0.0124
vn 0.9973 0.0702 -0.0207
vn 0.8581 0.2104 0.4684
vn 0.8762 0.0957 0.4724
vn 0.9941 0.0292 0.1042
vn 0.9490 0.1940 0.2484
vn 0.8491 0.2577 0.4610
vn 0.8404 0.2857 0.4606
vn 0.1316 0.0369 0.9906
vn 0.0196 0.0024 0.9998
vn 0.0203 0.0024 0.9998
vn 0.0093 -0.0002 1.0000
vn 0.0122 0.0077 0.9999
vn 0.0138 0.0093 0.9999
vn 0.7052 0.5665 0.4264
vn 0.7534 0.5020 0.4247
vn 0.8215 0.3499 0.4503
vn 0.7068 0.5622 0.4293
vn 0.7145 0.5624 0.4161
vn 0.7420 0.5253 0.4164
vn 0.6798 0.6653 0.3086
vn 0.6012 0.7271 0.3314
vn 0.6788 0.6688 0.3032
vn 0.5391 0.8419 0.0248
vn 0.4889 0.8723 -0.0019
vn 0.5050 0.8318 0.2304
vn 0.5790 0.7483 0.3237
vn 0.5194 0.8123 0.2654
vn 0.4625 0.8504 0.2509
vn 0.5136 0.8121 0.2769
vn 0.5685 0.7545 0.3279
vn 0.4436 0.8929 -0.0776
vn 0.2516 0.9672 0.0340
vn 0.2873 0.9438 0.1631
vn 0.4292 0.8705 0.2408
vn -0.8036 -0.5794 -0.1362
vn 0.4616 0.8601 0.2169
vn 0.5528 -0.8176 -0.1609
vn 0.5538 -0.8327 -0.0019
vn -0.9916 0.1281 0.0174
vn -0.9973 -0.0014 -0.0733
vn -1.0000 -0.0066 -0.0035
vn -1.0000 -0.0099 -0.0005
vn -0.9197 0.0035 0.3927
vn 0.4629 0.8618 0.2075
vn 0.0317 0.0064 0.9995
vn -0.9993 0.0367 0.0092
vn 0.6727 0.7310 0.1145
vn 0.5423 0.5820 0.6060
vn -0.9285 -0.3636 -0.0755
vn -0.0021 -0.9862 -0.1657
vn -0.0400 -0.9799 -0.1953
vn -0.0462 -0.9694 -0.2412
vn -0.0148 -0.9284 -0.3713
vn -0.0068 -0.9284 -0.3716
vn -0.0265 -0.9858 -0.1658
vn 0.0862 -0.8947 -0.4382
vn 0.2203 -0.9740 -0.0524
vn 0.1819 -0.9833 0.0002
vn 0.2132 -0.9770 0.0013
vn 0.6525 -0.7054 0.2769
vn 0.5090 -0.8388 0.1932
vn 0.4806 -0.8711 -0.1013
vn 0.8507 -0.2910 0.4378
vn 0.8364 -0.3465 0.4248
vn 0.8316 -0.5237 0.1849
vn 0.5412 -0.7956 -0.2723
vn 0.8530 -0.2393 0.4639
vn 0.6650 -0.1995 0.7197
vn -0.4549 0.5262 0.7185
vn 0.2203 -0.9733 0.0641
vn 0.0285 -0.1842 -0.9825
vn 0.1969 -0.9597 -0.2006
vn 0.1830 -0.9444 -0.2730
vn 0.2512 0.9673 0.0335
vn 0.3951 0.8974 -0.1962
vn 0.3696 0.9088 -0.1936
vn 0.3552 0.8211 -0.4469
vn 0.3297 0.8385 -0.4339
vn 0.6918 0.5515 -0.4661
vn 0.2341 0.6422 -0.7299
vn 0.5744 0.7451 0.3390
vn 0.8777 0.0003 0.4793
vn 0.3048 0.7695 -0.5612
s 0
f 247//476 248//476 251//476
f 248//477 247//477 249//477
f 247//478 250//478 249//478
f 250//479 247//479 251//479
f 248//480 252//480 251//480
f 252//481 253//481 251//481
f 253//482 250//482 251//482
f 253//483 254//483 250//483
f 254//484 253//484 252//484
f 255//485 254//485 258//485
f 255//486 256//486 254//486
f 254//487 256//487 250//487
f 257//488 254//488 252//488
f 254//489 257//489 258//489
f 259//490 258//490 262//490
f 259//491 255//491 258//491
f 258//492 257//492 261//492
f 258//493 260//493 262//493
f 260//494 258//494 261//494
f 265//495 263//495 262//495
f 263//496 264//496 262//496
f 264//497 259//497 262//497
f 260//498 265//498 262//498
f 263//499 265//499 266//499
f 265//500 260//500 268//500
f 265//501 267//501 266//501
f 267//502 265//502 268//502
f 261//503 269//503 268//503
f 269//504 267//504 268//504
f 260//505 261//505 268//505
f 269//506 252//506 248//506
f 269//507 257//507 252//507
f 257//508 269//508 261//508
f 267//509 269//509 270//509
f 270//510 269//510 248//510
f 267//511 270//511 266//511
f 271//512 270//512 248//512
f 271//513 272//513 270//513
f 270//514 272//514 273//514
f 270//515 273//515 266//515
f 274//516 273//516 277//516
f 274//517 275//517 273//517
f 273//518 275//518 266//518
f 272//519 276//519 273//519
f 273//520 276//520 277//520
f 276//521 278//521 277//521
f 278//522 274//522 277//522
f 279//523 278//523 281//523
f 279//524 280//524 278//524
f 278//525 280//525 274//525
f 281//526 278//526 282//526
f 282//527 278//527 283//527
f 283//528 278//528 284//528
f 278//529 272//529 284//529
f 278//530 276//530 272//530
f 285//531 283//531 284//531
f 286//532 285//532 284//532
f 272//533 286//533 284//533
f 272//534 287//534 286//534
f 287//535 285//535 286//535
f 271//536 287//536 272//536
f 271//537 288//537 287//537
f 288//538 289//538 287//538
f 287//539 289//539 291//539
f 285//540 287//540 290//540
f 290//541 287//541 291//541
f 289//542 282//542 291//542
f 282//543 290//543 291//543
f 282//544 285//544 290//544
f 289//545 288//545 292//545
f 293//546 289//546 292//546
f 289//547 293//547 294//547
f 282//548 289//548 294//548
f 295//549 294//549 296//549
f 295//550 282//550 294//550
f 294//551 293//551 296//551
f 293//552 256//552 296//552
f 256//553 295//553 296//553
f 295//554 297//554 281//554
f 297//555 295//555 255//555
f 255//556 295//556 256//556
f 295//557 281//557 298//557
f 282//558 295//558 298//558
f 281//559 282//559 298//559
f 297//560 255//560 259//560
f 297//561 299//561 281//561
f 299//562 297//562 300//562
f 297//563 259//563 302//563
f 300//564 297//564 301//564
f 301//565 297//565 302//565
f 259//566 301//566 302//566
f 259//567 264//567 301//567
f 264//568 300//568 301//568
f 299//569 300//569 303//569
f 264//570 263//570 300//570
f 300//571 263//571 305//571
f 300//572 304//572 303//572
f 304//573 300//573 305//573
f 307//574 306//574 305//574
f 306//575 304//575 305//575
f 263//576 307//576 305//576
f 307//577 308//577 306//577
f 307//578 275//578 308//578
f 275//579 307//579 266//579
f 307//580 263//580 266//580
f 275//581 280//581 308//581
f 280//582 279//582 308//582
f 308//583 279//583 306//583
f 303//584 304//584 306//584
f 279//585 303//585 306//585
f 279//586 281//586 303//586
f 281//587 299//587 303//587
f 256//588 293//588 292//588
f 292//589 288//589 309//589
f 256//590 292//590 309//590
f 256//591 309//591 249//591
f 309//592 288//592 249//592
f 288//593 271//593 248//593
f 288//594 248//594 249//594
f 285//595 282//595 283//595
f 280//596 275//596 274//596
f 250//597 256//597 249//597
o convex_1.014
v 0.016017 -0.004607 -0.016275
v 0.015612 0.004357 -0.016263
v 0.008500 0.010757 -0.016307
v 0.008537 -0.006833 -0.016279
v 0.015141 -0.005175 -0.016239
v 0.016568 0.001497 -0.016054
v 0.016548 -0.001829 -0.016088
v 0.015842 -0.004495 -0.016142
v 0.012904 -0.005487 -0.000771
v 0.011971 -0.006382 -0.000757
v 0.008519 -0.007944 -0.000671
v 0.008180 0.010290 -0.000728
v 0.013282 0.002304 -0.000823
v 0.012382 -0.006095 -0.009456
v 0.008248 -0.007617 -0.000616
v 0.008534 -0.007209 -0.012129
v 0.008608 -0.007022 -0.015167
v 0.011035 0.007443 -0.000788
v 0.012918 0.003720 -0.000815
v 0.014152 0.000406 -0.004619
v 0.014154 -0.001817 -0.005004
v 0.015751 0.003590 -0.016429
v 0.015741 0.002491 -0.014297
v 0.012459 0.007562 -0.014578
v 0.014340 0.005683 -0.016041
v 0.011508 0.008860 -0.016238
v 0.008912 0.010468 -0.015591
v 0.008574 0.010416 -0.000665
vn 0.2491 0.0126 -0.9684
vn 0.0078 0.0017 -1.0000
vn 0.0010 -0.0016 -1.0000
vn 0.0354 -0.1173 -0.9925
vn 0.3329 -0.4609 0.8227
vn 0.2943 0.0081 -0.9557
vn 0.5324 -0.1576 0.8317
vn 0.9526 -0.2553 0.1656
vn 0.6901 -0.7186 0.0855
vn 0.6875 -0.7212 0.0846
vn -0.0728 0.1064 -0.9917
vn 0.0232 0.0035 0.9997
vn 0.0248 0.0039 0.9997
vn 0.0091 0.0062 0.9999
vn 0.2742 -0.9615 -0.0188
vn 0.3144 -0.9491 -0.0165
vn 0.7724 0.6338 0.0416
vn 0.2951 -0.9551 -0.0265
vn 0.1072 0.9922 0.0638
vn 0.2636 -0.9632 -0.0529
vn 0.2866 -0.9579 -0.0132
vn -0.9980 -0.0020 0.0633
vn -1.0000 -0.0065 -0.0066
vn 0.2406 -0.9542 -0.1777
vn 0.0257 0.0045 0.9997
vn 0.0043 -0.0049 1.0000
vn 0.9685 -0.0454 0.2447
vn 0.9506 0.2439 0.1921
vn 0.9774 0.0294 0.2093
vn 0.9676 -0.0423 0.2491
vn 0.9768 -0.0357 0.2110
vn 0.9785 -0.0082 0.2060
vn 0.9736 -0.0891 0.2103
vn 0.8819 0.4448 0.1563
vn 0.9342 0.3153 0.1669
vn 0.8676 0.4777 0.1382
vn 0.8990 0.3875 0.2040
vn 0.9584 0.1179 0.2600
vn -0.8562 -0.2535 0.4502
vn 0.7048 0.7050 0.0789
vn 0.7354 0.6727 0.0818
vn 0.7260 0.6832 0.0785
vn 0.7227 0.6575 0.2130
vn 0.7400 0.6657 0.0966
vn 0.5325 0.8457 0.0349
vn 0.5328 0.8455 0.0364
vn 0.7395 0.6661 0.0972
vn 0.0626 0.0626 -0.9961
vn 0.3042 -0.9526 0.0035
vn 0.5560 0.8311 0.0155
vn 0.1574 -0.0001 -0.9875
vn -1.0000 0.0030 0.0048
s 0
f 310//598 311//598 315//598
f 310//599 312//599 311//599
f 312//600 310//600 313//600
f 313//601 310//601 314//601
f 314//602 310//602 317//602
f 316//603 310//603 315//603
f 310//604 316//604 317//604
f 316//605 318//605 317//605
f 318//606 319//606 317//606
f 319//607 314//607 317//607
f 319//608 320//608 324//608
f 319//609 321//609 320//609
f 321//610 319//610 322//610
f 322//611 319//611 318//611
f 314//612 319//612 323//612
f 323//613 319//613 324//613
f 320//614 325//614 324//614
f 325//615 323//615 324//615
f 320//616 326//616 325//616
f 326//617 314//617 325//617
f 325//618 314//618 323//618
f 326//619 312//619 313//619
f 326//620 320//620 312//620
f 326//621 313//621 314//621
f 321//622 322//622 327//622
f 327//623 322//623 328//623
f 322//624 318//624 329//624
f 322//625 315//625 328//625
f 315//626 322//626 329//626
f 318//627 330//627 329//627
f 330//628 316//628 329//628
f 316//629 315//629 329//629
f 330//630 318//630 316//630
f 327//631 328//631 331//631
f 328//632 332//632 331//632
f 315//633 332//633 328//633
f 332//634 315//634 331//634
f 311//635 327//635 331//635
f 315//636 311//636 331//636
f 321//637 327//637 333//637
f 333//638 327//638 334//638
f 327//639 311//639 334//639
f 311//640 335//640 334//640
f 335//641 333//641 334//641
f 312//642 336//642 335//642
f 336//643 321//643 335//643
f 321//644 333//644 335//644
f 311//645 312//645 335//645
f 321//646 336//646 337//646
f 336//647 312//647 337//647
f 320//648 321//648 337//648
f 312//649 320//649 337//649
