o convex_0
v -0.038766 0.023975 -0.026695
v -0.069129 0.012342 -0.045923
v -0.069129 0.012342 -0.044401
v -0.039779 -0.000307 -0.044910
v -0.038766 0.030555 -0.046936
v -0.056477 0.019421 -0.023658
v -0.066092 0.026001 -0.041872
v -0.053442 0.004247 -0.030240
v -0.057490 -0.003346 -0.046936
v -0.038766 0.013858 -0.023658
v -0.039779 0.029039 -0.031250
v -0.063054 0.010320 -0.031759
v -0.067102 0.023469 -0.046936
v -0.064068 0.022966 -0.031250
v -0.038766 0.001212 -0.038331
v -0.061030 -0.001827 -0.041872
v -0.038766 0.001718 -0.046936
v -0.051926 -0.004862 -0.043897
v -0.053442 0.010826 -0.023658
v -0.038766 0.006272 -0.029731
v -0.058501 0.026001 -0.031759
v -0.041298 0.031061 -0.042887
v -0.067607 0.005766 -0.044401
v -0.069129 0.020940 -0.042380
v -0.041298 0.026001 -0.026695
v -0.066092 0.013351 -0.034791
v -0.038766 0.019928 -0.023658
v -0.058501 0.027517 -0.046427
v -0.059514 0.005766 -0.031250
v -0.061535 0.017905 -0.027201
v -0.065583 0.003237 -0.046936
v -0.053442 0.018408 -0.022646
v -0.056477 0.013351 -0.023658
v -0.050405 -0.000307 -0.036308
v -0.065583 0.005766 -0.039342
v -0.057995 -0.000307 -0.037321
v -0.058501 0.022966 -0.027201
v -0.048381 -0.003346 -0.046427
v -0.060020 0.027517 -0.041365
v -0.067607 0.025494 -0.045417
v -0.053442 0.020940 -0.023658
v -0.038766 0.029039 -0.031250
v -0.069129 0.020940 -0.046427
v -0.050405 0.010826 -0.023658
v -0.054958 -0.004862 -0.043897
v -0.050405 0.014867 -0.022646
v -0.064068 0.001212 -0.041872
v -0.059514 -0.003346 -0.044910
v -0.066092 0.023975 -0.036308
v -0.043322 0.029039 -0.033274
v -0.050405 0.004247 -0.030240
v -0.038766 0.003237 -0.034289
v -0.040793 0.028026 -0.029225
v -0.038766 0.009307 -0.026695
v -0.069129 0.013351 -0.042887
v -0.067607 0.008801 -0.040863
v -0.068621 0.012342 -0.046936
v -0.064068 0.026001 -0.037827
v -0.038766 0.031061 -0.045923
v -0.059514 0.012342 -0.026695
v -0.061030 0.004247 -0.034289
v -0.064570 0.022460 -0.031759
v -0.063054 0.016386 -0.029225
v -0.054958 0.007282 -0.027201
f 51 44 64 
f 5 1 10 
f 5 9 13 
f 5 10 15 
f 9 5 17 
f 15 4 17 
f 5 15 17 
f 4 15 18 
f 15 10 20 
f 3 2 23 
f 2 3 24 
f 10 1 27 
f 1 25 27 
f 5 13 28 
f 6 14 30 
f 13 9 31 
f 23 2 31 
f 6 30 33 
f 32 6 33 
f 12 26 35 
f 34 8 36 
f 14 6 37 
f 21 14 37 
f 17 4 38 
f 9 17 38 
f 4 18 38 
f 18 9 38 
f 22 28 39 
f 39 28 40 
f 28 13 40 
f 7 39 40 
f 27 25 41 
f 6 32 41 
f 32 27 41 
f 37 6 41 
f 25 37 41 
f 1 5 42 
f 22 11 42 
f 25 1 42 
f 2 24 43 
f 40 13 43 
f 24 40 43 
f 9 18 45 
f 18 34 45 
f 36 16 45 
f 34 36 45 
f 10 27 46 
f 27 32 46 
f 33 19 46 
f 32 33 46 
f 19 44 46 
f 44 10 46 
f 23 31 47 
f 35 23 47 
f 31 9 48 
f 9 45 48 
f 45 16 48 
f 16 47 48 
f 47 31 48 
f 40 24 49 
f 7 40 49 
f 21 11 50 
f 11 22 50 
f 39 21 50 
f 22 39 50 
f 8 34 51 
f 34 20 51 
f 18 15 52 
f 15 20 52 
f 34 18 52 
f 20 34 52 
f 11 21 53 
f 21 37 53 
f 37 25 53 
f 42 11 53 
f 25 42 53 
f 20 10 54 
f 10 44 54 
f 51 20 54 
f 44 51 54 
f 3 23 55 
f 24 3 55 
f 26 24 55 
f 26 55 56 
f 23 35 56 
f 35 26 56 
f 55 23 56 
f 31 2 57 
f 13 31 57 
f 2 43 57 
f 43 13 57 
f 14 21 58 
f 39 7 58 
f 21 39 58 
f 7 49 58 
f 49 14 58 
f 5 28 59 
f 28 22 59 
f 42 5 59 
f 22 42 59 
f 12 29 60 
f 29 33 60 
f 33 30 60 
f 29 12 61 
f 12 35 61 
f 16 36 61 
f 36 29 61 
f 47 16 61 
f 35 47 61 
f 24 26 62 
f 30 14 62 
f 14 49 62 
f 49 24 62 
f 26 12 63 
f 12 60 63 
f 60 30 63 
f 62 26 63 
f 30 62 63 
f 33 29 64 
f 19 33 64 
f 29 36 64 
f 36 8 64 
f 44 19 64 
f 8 51 64 
o convex_1
v -0.032189 0.001208 -0.043899
v -0.026115 0.021447 -0.021127
v -0.026115 0.023471 -0.021635
v -0.038766 0.019930 -0.023661
v -0.038766 0.030556 -0.046936
v -0.026115 0.032583 -0.045415
v -0.026115 0.003235 -0.031253
v -0.038766 0.001715 -0.046936
v -0.026115 0.003739 -0.046936
v -0.038766 0.009307 -0.026698
v -0.038766 0.029039 -0.031253
v -0.026621 0.010320 -0.021127
v -0.026115 0.032583 -0.031758
v -0.038766 0.001208 -0.038331
v -0.035223 0.032583 -0.043899
v -0.026115 0.028025 -0.046936
v -0.029152 0.006269 -0.025682
v -0.029658 0.026508 -0.024164
v -0.026115 0.001715 -0.037318
v -0.038259 0.012344 -0.023661
v -0.026115 0.001715 -0.045415
v -0.034211 0.015378 -0.022140
v -0.038766 0.031063 -0.039345
v -0.038766 0.027522 -0.028719
v -0.038766 0.006269 -0.029732
v -0.038259 0.021447 -0.023661
v -0.026115 0.006272 -0.025177
v -0.029152 0.019930 -0.021127
v -0.035223 0.031063 -0.033782
v -0.032189 0.009307 -0.023661
v -0.038766 0.001208 -0.045923
v -0.038766 0.003235 -0.034282
v -0.030164 0.032583 -0.035292
v -0.026115 0.026508 -0.024164
f 77 82 98 
f 67 66 70 
f 70 66 71 
f 68 69 72 
f 70 71 73 
f 72 69 73 
f 68 72 74 
f 69 68 75 
f 67 70 77 
f 74 72 78 
f 70 69 79 
f 77 70 79 
f 69 70 80 
f 73 69 80 
f 70 73 80 
f 78 71 81 
f 73 71 83 
f 78 65 83 
f 71 78 83 
f 68 74 84 
f 72 73 85 
f 83 65 85 
f 73 83 85 
f 68 84 86 
f 84 76 86 
f 69 75 87 
f 79 69 87 
f 75 68 88 
f 77 75 88 
f 82 77 88 
f 74 78 89 
f 67 82 90 
f 88 68 90 
f 82 88 90 
f 71 66 91 
f 66 76 91 
f 81 71 91 
f 76 81 91 
f 66 67 92 
f 76 66 92 
f 68 86 92 
f 86 76 92 
f 67 90 92 
f 90 68 92 
f 75 77 93 
f 87 75 93 
f 81 76 94 
f 84 74 94 
f 76 84 94 
f 74 89 94 
f 89 81 94 
f 65 78 95 
f 78 72 95 
f 85 65 95 
f 72 85 95 
f 78 81 96 
f 89 78 96 
f 81 89 96 
f 77 79 97 
f 79 87 97 
f 93 77 97 
f 87 93 97 
f 67 77 98 
f 82 67 98 
o convex_2
v -0.015989 0.002223 -0.011007
v 0.016390 0.028535 -0.018089
v 0.016390 0.028535 -0.021127
v 0.013861 -0.012960 -0.009994
v -0.015989 -0.004355 -0.021127
v -0.011441 0.028535 -0.009994
v -0.026621 0.020435 -0.021127
v 0.022972 0.005767 -0.021127
v 0.011836 0.028535 -0.009994
v -0.002834 -0.014477 -0.009994
v 0.012341 -0.009416 -0.018597
v -0.016494 0.028535 -0.021127
v -0.020543 0.017397 -0.009994
v 0.018414 0.000706 -0.009994
v -0.025096 0.009302 -0.017079
v -0.001319 -0.014477 -0.013538
v 0.022463 0.009808 -0.019103
v 0.013861 -0.002328 -0.021127
v 0.018414 -0.007899 -0.010501
v -0.026621 0.010819 -0.021127
v 0.009307 -0.014477 -0.013031
v -0.020038 0.000201 -0.019607
v 0.015380 -0.011438 -0.013031
v -0.020543 0.012336 -0.009994
v -0.015989 0.026508 -0.012020
v 0.019429 0.008797 -0.013031
v -0.025096 0.015370 -0.015561
v -0.017004 0.000201 -0.013538
v 0.003234 -0.015998 -0.009994
v 0.002224 -0.012960 -0.015561
v -0.017509 0.028025 -0.018597
v -0.025606 0.021948 -0.020620
v -0.015989 0.024986 -0.009994
v 0.016899 -0.008400 -0.015055
v -0.003344 -0.004355 -0.021127
v -0.026621 0.019930 -0.020115
v 0.018414 -0.007899 -0.009994
v 0.022463 0.010309 -0.021127
v 0.006268 -0.009416 -0.018597
v -0.021558 0.018918 -0.012020
v -0.015989 0.003740 -0.009994
v 0.010822 -0.012960 -0.015055
v 0.016899 0.008797 -0.009994
v 0.012851 0.028535 -0.011515
v -0.025096 0.012336 -0.015561
v 0.021453 0.003744 -0.021127
f 132 109 144 
f 100 101 104 
f 101 103 105 
f 103 101 106 
f 100 104 107 
f 104 102 107 
f 102 104 108 
f 104 101 110 
f 101 105 110 
f 108 104 111 
f 107 102 112 
f 108 103 114 
f 103 106 116 
f 105 103 118 
f 103 108 120 
f 118 103 120 
f 113 118 120 
f 102 119 121 
f 108 111 122 
f 112 115 124 
f 122 111 125 
f 108 99 126 
f 120 108 126 
f 113 120 126 
f 102 108 127 
f 108 114 127 
f 119 102 127 
f 114 119 127 
f 114 103 128 
f 119 114 128 
f 104 110 129 
f 123 104 129 
f 123 129 130 
f 110 105 130 
f 129 110 130 
f 111 104 131 
f 104 123 131 
f 123 130 131 
f 106 117 132 
f 121 109 132 
f 117 121 132 
f 109 103 133 
f 103 116 133 
f 116 109 133 
f 105 118 134 
f 130 105 134 
f 112 102 135 
f 106 115 135 
f 115 112 135 
f 117 106 135 
f 102 121 135 
f 121 117 135 
f 101 100 136 
f 106 101 136 
f 100 115 136 
f 115 106 136 
f 103 109 137 
f 128 103 137 
f 109 128 137 
f 125 111 138 
f 111 131 138 
f 131 130 138 
f 134 125 138 
f 130 134 138 
f 99 108 139 
f 108 122 139 
f 122 113 139 
f 126 99 139 
f 113 126 139 
f 109 121 140 
f 121 119 140 
f 128 109 140 
f 119 128 140 
f 107 112 141 
f 124 107 141 
f 112 124 141 
f 100 107 142 
f 115 100 142 
f 107 124 142 
f 124 115 142 
f 118 113 143 
f 113 122 143 
f 122 125 143 
f 134 118 143 
f 125 134 143 
f 116 106 144 
f 109 116 144 
f 106 132 144 
o convex_3
v -0.009924 0.038647 -0.027706
v -0.026112 0.001719 -0.045417
v -0.008910 -0.006880 -0.044402
v -0.016499 -0.002834 -0.027706
v 0.005260 0.019422 -0.045417
v 0.005260 -0.002332 -0.027706
v -0.026112 0.032577 -0.045417
v -0.026112 0.028025 -0.027706
v 0.005260 0.034600 -0.031249
v 0.003740 0.001213 -0.046936
v -0.016499 0.032577 -0.046936
v -0.026112 0.004753 -0.027706
v -0.026112 0.003742 -0.046936
v 0.005260 0.034600 -0.027706
v -0.011941 -0.007390 -0.033780
v -0.009924 0.038647 -0.034791
v 0.005260 -0.002332 -0.041366
v 0.002729 0.036122 -0.033276
v -0.026112 0.032577 -0.031249
v -0.004862 -0.007390 -0.043393
v -0.014475 0.038651 -0.031249
v -0.002332 0.023468 -0.046936
v -0.003849 -0.003845 -0.046936
v -0.026112 0.001719 -0.036817
v -0.025101 0.032071 -0.046936
v -0.004862 -0.007390 -0.035806
v 0.005260 -0.000815 -0.045417
v -0.011941 -0.007390 -0.040357
v -0.000815 0.037635 -0.029225
v -0.009417 -0.005363 -0.029731
v -0.014979 0.037134 -0.027706
v -0.006886 0.037635 -0.036310
v 0.003236 -0.003850 -0.039343
v -0.012955 0.038647 -0.034791
v -0.008403 0.039162 -0.031755
v -0.006886 -0.007390 -0.033780
v 0.002729 0.013357 -0.046936
v -0.001825 0.023974 -0.046428
v -0.026112 0.003236 -0.030240
v -0.006886 -0.003845 -0.046936
v -0.023581 0.031060 -0.027706
v -0.026112 0.027519 -0.046936
v 0.000199 -0.005363 -0.036817
v -0.025101 0.032577 -0.046428
v 0.004247 0.022461 -0.043896
v -0.001825 0.037635 -0.027706
v 0.005260 0.032582 -0.033780
f 189 162 191 
f 145 148 150 
f 148 145 152 
f 151 146 152 
f 150 149 153 
f 152 146 156 
f 148 152 156 
f 147 146 157 
f 146 151 157 
f 155 154 157 
f 145 150 158 
f 150 153 158 
f 149 150 161 
f 158 153 162 
f 151 152 163 
f 151 163 165 
f 154 155 166 
f 157 154 167 
f 164 147 167 
f 156 146 168 
f 146 159 168 
f 155 157 169 
f 159 164 170 
f 154 149 171 
f 149 161 171 
f 161 164 171 
f 167 154 171 
f 164 167 171 
f 146 147 172 
f 159 146 172 
f 147 164 172 
f 164 159 172 
f 158 162 173 
f 150 148 174 
f 148 159 174 
f 152 145 175 
f 145 165 175 
f 165 163 175 
f 155 160 176 
f 162 155 176 
f 161 150 177 
f 164 161 177 
f 160 155 178 
f 151 165 178 
f 165 145 179 
f 173 162 179 
f 176 160 179 
f 162 176 179 
f 160 178 179 
f 178 165 179 
f 170 150 180 
f 159 170 180 
f 150 174 180 
f 174 159 180 
f 149 154 181 
f 166 149 181 
f 154 166 181 
f 155 162 182 
f 149 166 182 
f 166 155 182 
f 148 156 183 
f 159 148 183 
f 156 168 183 
f 168 159 183 
f 147 157 184 
f 167 147 184 
f 157 167 184 
f 163 152 185 
f 152 175 185 
f 175 163 185 
f 157 151 186 
f 151 169 186 
f 169 157 186 
f 150 170 187 
f 170 164 187 
f 177 150 187 
f 164 177 187 
f 169 151 188 
f 155 169 188 
f 178 155 188 
f 151 178 188 
f 149 182 189 
f 182 162 189 
f 145 158 190 
f 158 173 190 
f 179 145 190 
f 173 179 190 
f 153 149 191 
f 162 153 191 
f 149 189 191 
o convex_4
v 0.005261 0.036118 -0.021127
v -0.026115 0.004758 -0.027706
v -0.018520 -0.001313 -0.027706
v -0.015992 -0.004349 -0.021127
v -0.022571 0.046239 -0.021127
v 0.005261 0.034602 -0.027706
v 0.005261 -0.002328 -0.027706
v -0.018520 0.043709 -0.027706
v 0.005261 -0.000808 -0.021127
v -0.026115 0.010324 -0.021127
v -0.006886 0.046744 -0.022646
v -0.026115 0.028021 -0.027706
v -0.015488 -0.004349 -0.027199
v -0.001321 -0.004349 -0.022646
v -0.012955 0.046239 -0.026187
v -0.021053 0.046239 -0.025681
v -0.009923 0.047765 -0.021127
v -0.026115 0.022960 -0.021127
v -0.018520 -0.002833 -0.021634
v -0.023581 0.044214 -0.021634
v -0.003342 -0.004349 -0.026694
v -0.008403 0.044724 -0.026187
v -0.022064 0.044214 -0.026187
v 0.003740 -0.002328 -0.021127
v -0.025101 0.006273 -0.022140
v -0.018520 0.047765 -0.021634
v 0.005261 0.036118 -0.024164
v -0.018520 -0.002833 -0.025681
v -0.002838 -0.004349 -0.021127
v -0.006886 0.046744 -0.021127
v -0.012955 0.047765 -0.022646
v 0.005261 -0.002328 -0.022646
f 215 220 223 
f 195 192 196 
f 194 193 197 
f 197 192 198 
f 194 197 198 
f 197 193 199 
f 192 195 200 
f 198 192 200 
f 195 196 201 
f 199 193 203 
f 193 201 203 
f 193 194 204 
f 194 198 204 
f 195 204 205 
f 206 199 207 
f 196 192 208 
f 201 196 209 
f 203 201 209 
f 195 201 210 
f 196 207 211 
f 209 196 211 
f 203 209 211 
f 204 198 212 
f 198 205 212 
f 205 204 212 
f 197 199 213 
f 202 197 213 
f 199 206 213 
f 206 202 213 
f 199 203 214 
f 207 199 214 
f 211 207 214 
f 203 211 214 
f 200 195 215 
f 201 193 216 
f 193 210 216 
f 210 201 216 
f 207 196 217 
f 196 208 217 
f 192 197 218 
f 202 192 218 
f 197 202 218 
f 193 204 219 
f 204 195 219 
f 210 193 219 
f 195 210 219 
f 195 205 220 
f 215 195 220 
f 192 202 221 
f 208 192 221 
f 202 208 221 
f 202 206 222 
f 206 207 222 
f 208 202 222 
f 207 217 222 
f 217 208 222 
f 198 200 223 
f 205 198 223 
f 200 215 223 
f 220 205 223 
o convex_5
v 0.031571 0.020940 -0.040864
v 0.005261 -0.002328 -0.040864
v 0.005261 -0.002328 -0.035804
v 0.032080 -0.010930 -0.044405
v 0.005769 0.020940 -0.045416
v 0.028539 0.024485 -0.035804
v 0.005261 0.024992 -0.035804
v 0.016898 -0.017009 -0.046936
v 0.039163 0.007278 -0.046936
v 0.026010 -0.010423 -0.037323
v 0.023477 0.021954 -0.046936
v 0.035115 0.000709 -0.039346
v 0.021961 0.027523 -0.041370
v 0.006274 0.010316 -0.046936
v 0.032080 0.013856 -0.035804
v 0.018417 -0.017516 -0.042380
v 0.020442 -0.008399 -0.035804
v 0.005261 -0.000812 -0.045416
v 0.038153 -0.003338 -0.046428
v 0.039672 0.007278 -0.043898
v 0.016393 0.025495 -0.045416
v 0.025501 -0.015488 -0.046936
v 0.026512 0.024485 -0.043898
v 0.009818 0.027016 -0.035804
v 0.018417 -0.012455 -0.037323
v 0.025501 0.027523 -0.037323
v 0.021456 -0.017516 -0.042380
v 0.033090 0.017907 -0.036311
v 0.036125 -0.003338 -0.041875
v 0.037644 0.012339 -0.044910
v 0.015383 -0.015991 -0.042380
v 0.016393 0.021954 -0.046936
v 0.039672 0.001719 -0.043898
v 0.034609 0.013349 -0.046936
v 0.005261 0.019931 -0.045416
v 0.033090 0.003240 -0.037323
v 0.014874 -0.015488 -0.045923
v 0.035115 -0.007901 -0.043898
v 0.035115 -0.007389 -0.046936
v 0.027526 -0.013967 -0.042380
v 0.028539 0.024485 -0.041875
v 0.021961 -0.008399 -0.035804
v 0.022972 -0.017516 -0.045923
v 0.023477 0.027523 -0.035804
v 0.008804 0.017400 -0.046936
v 0.017912 0.027523 -0.041370
v 0.020947 0.025495 -0.045416
v 0.007794 0.002733 -0.046936
v 0.031571 0.020940 -0.035804
v 0.022466 -0.012455 -0.037323
v 0.039672 0.000202 -0.046428
v 0.009818 0.027016 -0.036311
v 0.031066 0.009302 -0.035804
v 0.017407 -0.015488 -0.040359
v 0.015383 -0.015488 -0.046936
v 0.033090 0.013856 -0.036311
v 0.033595 -0.002835 -0.039346
f 235 259 280 
f 225 226 230 
f 226 229 230 
f 232 231 234 
f 234 231 237 
f 229 226 238 
f 238 226 240 
f 225 230 241 
f 231 232 245 
f 230 229 247 
f 240 226 248 
f 248 239 250 
f 243 232 253 
f 251 243 253 
f 231 239 254 
f 234 237 255 
f 228 244 255 
f 244 234 255 
f 243 251 256 
f 235 252 256 
f 232 234 257 
f 234 246 257 
f 253 232 257 
f 230 228 258 
f 241 230 258 
f 237 241 258 
f 226 225 260 
f 225 241 260 
f 254 226 260 
f 231 254 260 
f 252 233 261 
f 242 256 261 
f 256 252 261 
f 245 232 262 
f 227 245 262 
f 261 227 262 
f 242 261 262 
f 233 250 263 
f 227 261 263 
f 261 233 263 
f 229 224 264 
f 246 236 264 
f 249 229 264 
f 236 249 264 
f 224 253 264 
f 257 246 264 
f 253 257 264 
f 238 240 265 
f 240 248 265 
f 233 259 265 
f 239 231 266 
f 231 245 266 
f 245 227 266 
f 250 239 266 
f 227 263 266 
f 263 250 266 
f 247 229 267 
f 229 249 267 
f 249 236 267 
f 228 255 268 
f 255 237 268 
f 258 228 268 
f 237 258 268 
f 236 244 269 
f 247 267 269 
f 267 236 269 
f 234 244 270 
f 244 236 270 
f 246 234 270 
f 236 246 270 
f 237 231 271 
f 241 237 271 
f 224 229 272 
f 229 238 272 
f 238 251 272 
f 253 224 272 
f 251 253 272 
f 250 233 273 
f 248 250 273 
f 233 265 273 
f 265 248 273 
f 232 243 274 
f 256 242 274 
f 243 256 274 
f 262 232 274 
f 242 262 274 
f 228 230 275 
f 244 228 275 
f 230 247 275 
f 269 244 275 
f 247 269 275 
f 259 238 276 
f 238 265 276 
f 265 259 276 
f 248 226 277 
f 239 248 277 
f 226 254 277 
f 254 239 277 
f 260 241 278 
f 231 260 278 
f 271 231 278 
f 241 271 278 
f 251 238 279 
f 235 256 279 
f 256 251 279 
f 259 235 279 
f 238 259 279 
f 233 252 280 
f 252 235 280 
f 259 233 280 
o convex_6
v 0.032081 0.015377 -0.035803
v 0.005261 -0.002334 -0.035803
v 0.008805 -0.003853 -0.035803
v 0.011842 0.036125 -0.021127
v 0.016899 -0.000816 -0.021127
v 0.005261 0.030557 -0.034790
v 0.005261 -0.000816 -0.021127
v 0.022971 0.009813 -0.021127
v 0.026006 0.000702 -0.035803
v 0.005261 0.036125 -0.021127
v 0.023478 0.027520 -0.035803
v 0.030054 0.022460 -0.033270
v 0.019934 -0.003853 -0.027707
v 0.024491 0.002729 -0.024166
v 0.007287 0.034603 -0.031248
v 0.016395 0.031570 -0.021127
v 0.012346 -0.003853 -0.022647
v 0.005261 0.025497 -0.035803
v 0.021454 -0.003853 -0.035803
v 0.030054 0.019424 -0.031248
v 0.031575 0.012341 -0.034283
v 0.026006 0.007285 -0.024166
v 0.005261 -0.002334 -0.022647
v 0.028537 0.024483 -0.035803
v 0.011842 0.036125 -0.022647
v 0.022971 0.005257 -0.021127
v 0.005261 0.033089 -0.033270
v 0.030561 0.008803 -0.035296
v 0.031575 0.019424 -0.033270
v 0.021454 -0.001826 -0.025683
v 0.028537 0.024483 -0.033777
v 0.031575 0.020938 -0.035803
v 0.027524 0.002729 -0.035296
v 0.005261 0.036125 -0.024166
v 0.007287 -0.002334 -0.021127
v 0.019430 -0.001826 -0.023660
v 0.010322 -0.003853 -0.024166
v 0.031575 0.014872 -0.033270
f 309 302 318 
f 283 282 281 
f 285 284 287 
f 286 282 287 
f 284 285 288 
f 283 281 289 
f 287 284 290 
f 286 287 290 
f 281 282 291 
f 284 288 296 
f 283 293 297 
f 282 286 298 
f 291 282 298 
f 286 291 298 
f 283 289 299 
f 293 283 299 
f 289 293 299 
f 296 288 300 
f 300 288 302 
f 294 301 302 
f 282 283 303 
f 287 282 303 
f 281 291 304 
f 290 284 305 
f 291 295 305 
f 304 291 305 
f 284 304 305 
f 288 285 306 
f 302 288 306 
f 294 302 306 
f 286 290 307 
f 291 286 307 
f 295 291 307 
f 289 281 308 
f 281 301 308 
f 301 294 308 
f 292 296 309 
f 296 300 309 
f 300 302 309 
f 293 289 310 
f 284 296 311 
f 296 292 311 
f 304 284 311 
f 304 311 312 
f 281 304 312 
f 292 309 312 
f 309 281 312 
f 311 292 312 
f 289 308 313 
f 308 294 313 
f 310 289 313 
f 294 310 313 
f 290 305 314 
f 305 295 314 
f 307 290 314 
f 295 307 314 
f 285 287 315 
f 297 285 315 
f 287 303 315 
f 303 297 315 
f 285 297 316 
f 297 293 316 
f 306 285 316 
f 294 306 316 
f 293 310 316 
f 310 294 316 
f 283 297 317 
f 303 283 317 
f 297 303 317 
f 301 281 318 
f 302 301 318 
f 281 309 318 
o convex_7
v -0.004353 -0.013461 -0.007969
v 0.014874 0.028535 0.005693
v 0.014874 0.028535 -0.004427
v -0.023584 0.021952 0.000127
v 0.014874 -0.006377 0.010248
v -0.020039 0.003239 0.010248
v 0.019933 -0.004860 -0.008982
v -0.011439 0.028535 -0.009994
v -0.000306 0.028535 0.010248
v -0.020545 0.012336 -0.009994
v 0.022462 0.012336 0.006198
v -0.002835 -0.011438 0.007718
v 0.010827 -0.014477 -0.009994
v 0.011839 0.028535 -0.009994
v -0.019027 0.023469 0.010248
v 0.022972 0.001212 0.004175
v 0.022462 0.010314 -0.000379
v 0.016898 -0.011438 -0.004934
v -0.008906 -0.007393 0.010248
v 0.001717 -0.015998 -0.009994
v 0.006270 -0.014477 -0.002909
v -0.017004 0.000201 0.000127
v 0.003741 0.028025 0.010248
v -0.008400 0.028535 0.008223
v -0.023584 0.013858 -0.000884
v -0.004353 -0.013461 0.002150
v -0.022062 0.023469 0.005693
v -0.020545 0.017397 -0.009994
v 0.018415 0.001212 -0.009994
v -0.015992 0.003740 -0.009994
v -0.023584 0.017397 0.004680
v 0.001717 -0.011443 0.008223
v 0.021450 0.016892 0.002150
v -0.009411 -0.008906 -0.003921
v 0.019933 0.002729 0.008223
v 0.017909 0.023975 0.006198
v 0.012345 -0.012960 -0.002909
v -0.015992 0.024991 -0.009994
v 0.019933 -0.000305 -0.008982
v -0.021051 0.010819 0.010248
v -0.002835 -0.014477 -0.009994
v 0.016898 -0.009921 -0.009994
v 0.016392 0.023975 -0.004934
v 0.010827 0.028025 0.008223
v -0.020545 0.008291 -0.003921
v 0.022972 0.002729 0.006198
v 0.019933 -0.006887 -0.004934
v -0.015992 0.026508 0.001645
v -0.002835 -0.014477 -0.000379
v 0.014874 -0.002332 0.010248
v -0.023584 0.019930 -0.002404
v -0.022062 0.023469 -0.000884
v -0.009411 -0.008400 -0.005944
v 0.021450 -0.001826 -0.004427
v 0.016392 0.027013 -0.001391
v 0.021450 -0.000305 0.006198
v 0.022972 0.009808 0.001645
v 0.002729 -0.015998 -0.007464
v -0.000306 -0.012960 0.005187
v 0.010827 -0.014477 -0.006452
v -0.022062 0.021952 -0.003921
v -0.021556 0.019930 0.008223
v 0.016898 -0.011438 -0.008475
v 0.010827 -0.008400 0.009235
f 350 355 382 
f 320 321 326 
f 324 323 327 
f 320 326 327 
f 328 326 331 
f 326 321 332 
f 331 326 332 
f 324 327 333 
f 323 324 337 
f 328 331 338 
f 327 323 341 
f 327 326 342 
f 333 327 342 
f 337 324 344 
f 330 337 344 
f 333 342 345 
f 326 328 346 
f 331 332 347 
f 328 338 348 
f 322 343 349 
f 343 324 349 
f 345 322 349 
f 323 337 350 
f 337 330 350 
f 324 340 352 
f 319 344 352 
f 344 324 352 
f 329 351 354 
f 336 323 355 
f 350 339 355 
f 326 346 356 
f 325 347 357 
f 347 332 357 
f 324 333 358 
f 349 324 358 
f 344 319 359 
f 348 338 359 
f 347 325 360 
f 331 347 360 
f 332 321 361 
f 321 351 361 
f 351 335 361 
f 357 332 361 
f 335 357 361 
f 320 327 362 
f 327 341 362 
f 353 329 362 
f 354 320 362 
f 329 354 362 
f 340 324 363 
f 324 343 363 
f 343 328 363 
f 328 348 363 
f 348 340 363 
f 353 323 364 
f 329 353 364 
f 342 326 366 
f 345 342 366 
f 344 359 367 
f 359 338 367 
f 341 323 368 
f 323 353 368 
f 362 341 368 
f 353 362 368 
f 343 322 369 
f 328 343 369 
f 346 328 369 
f 322 345 370 
f 326 356 370 
f 366 326 370 
f 345 366 370 
f 340 348 371 
f 352 340 371 
f 319 352 371 
f 359 319 371 
f 348 359 371 
f 357 335 372 
f 325 357 372 
f 365 325 372 
f 334 365 372 
f 321 320 373 
f 351 321 373 
f 320 354 373 
f 354 351 373 
f 323 336 374 
f 364 323 374 
f 334 364 374 
f 365 334 374 
f 336 365 374 
f 351 329 375 
f 335 351 375 
f 364 334 375 
f 329 364 375 
f 334 372 375 
f 372 335 375 
f 338 331 376 
f 367 338 376 
f 367 376 377 
f 330 344 377 
f 350 330 377 
f 339 350 377 
f 344 367 377 
f 376 339 377 
f 331 336 378 
f 336 355 378 
f 355 339 378 
f 376 331 378 
f 339 376 378 
f 356 346 379 
f 369 322 379 
f 346 369 379 
f 370 356 379 
f 322 370 379 
f 333 345 380 
f 345 349 380 
f 358 333 380 
f 349 358 380 
f 336 331 381 
f 360 325 381 
f 331 360 381 
f 325 365 381 
f 365 336 381 
f 323 350 382 
f 355 323 382 
o convex_8
v -0.006885 -0.005875 0.012779
v -0.021560 0.009300 0.010754
v -0.021560 0.009300 0.012274
v -0.017004 0.023474 0.010248
v -0.014475 0.008795 0.022899
v -0.013969 0.000198 0.021885
v -0.008909 -0.007395 0.010248
v -0.020041 0.003740 0.010248
v -0.019028 0.022462 0.013791
v -0.010428 0.000198 0.021381
v -0.020041 0.007789 0.016826
v -0.006379 -0.005370 0.010248
v -0.012452 -0.004358 0.016321
v -0.017004 0.010823 0.021381
v -0.009418 -0.004358 0.018848
v -0.014980 0.012847 0.020873
v -0.019028 0.023474 0.010248
v -0.017004 0.000198 0.014803
v -0.016499 0.022462 0.010754
v -0.013969 0.001211 0.022899
v -0.020545 0.012339 0.015309
v -0.020041 0.005257 0.014803
v -0.017511 0.022966 0.013284
v -0.015487 0.005764 0.022899
v -0.010935 -0.000814 0.022393
v -0.015487 0.011327 0.022393
v -0.021560 0.011327 0.012274
v -0.013969 -0.002838 0.010248
v -0.010935 -0.004358 0.018848
v -0.007392 -0.007395 0.011766
v -0.006379 -0.005370 0.010754
v -0.021560 0.010823 0.010248
f 409 399 414 
f 386 389 390 
f 385 384 390 
f 389 386 394 
f 383 392 397 
f 387 392 398 
f 386 390 399 
f 395 388 400 
f 394 386 401 
f 398 392 401 
f 396 391 403 
f 393 396 403 
f 385 390 404 
f 393 385 404 
f 390 400 404 
f 400 388 404 
f 388 402 404 
f 402 393 404 
f 386 399 405 
f 399 391 405 
f 401 386 405 
f 398 401 405 
f 396 393 406 
f 402 387 406 
f 393 402 406 
f 392 387 407 
f 397 392 407 
f 387 402 407 
f 391 396 408 
f 387 398 408 
f 405 391 408 
f 398 405 408 
f 406 387 408 
f 396 406 408 
f 384 385 409 
f 385 393 409 
f 391 399 409 
f 403 391 409 
f 393 403 409 
f 390 389 410 
f 389 395 410 
f 400 390 410 
f 395 400 410 
f 395 389 411 
f 388 395 411 
f 402 388 411 
f 397 407 411 
f 407 402 411 
f 389 394 412 
f 383 397 412 
f 411 389 412 
f 397 411 412 
f 392 383 413 
f 394 401 413 
f 401 392 413 
f 383 412 413 
f 412 394 413 
f 390 384 414 
f 399 390 414 
f 384 409 414 
o convex_9
v -0.013967 0.029042 0.017331
v -0.010936 0.044727 0.011260
v -0.010936 0.044727 0.010754
v -0.022066 0.038654 0.018343
v -0.006885 0.041690 0.021381
v -0.005369 0.033596 0.010754
v -0.022066 0.032584 0.010754
v -0.020547 0.030561 0.021381
v -0.006381 0.034103 0.021381
v -0.017512 0.043208 0.021381
v -0.021051 0.041690 0.010754
v -0.003342 0.041690 0.010754
v -0.017512 0.029042 0.010754
v -0.009922 0.030561 0.021381
v -0.017512 0.044727 0.010754
v -0.022066 0.032079 0.021381
v -0.003342 0.037642 0.013285
v -0.014473 0.044727 0.016826
v -0.021051 0.040173 0.021381
v -0.014473 0.029042 0.010754
v -0.004862 0.038147 0.019861
v -0.021051 0.041690 0.018343
v -0.009922 0.043208 0.020874
v -0.003850 0.042196 0.012274
v -0.020547 0.030561 0.010754
v -0.022066 0.038654 0.010754
v -0.015992 0.029042 0.018343
v -0.009922 0.030561 0.016320
f 434 420 442 
f 417 420 421 
f 419 422 423 
f 422 419 424 
f 417 421 425 
f 420 417 426 
f 421 420 427 
f 420 423 428 
f 423 422 428 
f 416 417 429 
f 417 425 429 
f 418 421 430 
f 422 424 430 
f 423 420 431 
f 420 426 431 
f 416 429 432 
f 429 424 432 
f 418 430 433 
f 430 424 433 
f 415 427 434 
f 427 420 434 
f 419 423 435 
f 423 431 435 
f 431 426 435 
f 425 418 436 
f 424 429 436 
f 429 425 436 
f 418 433 436 
f 433 424 436 
f 424 419 437 
f 416 432 437 
f 432 424 437 
f 417 416 438 
f 426 417 438 
f 419 435 438 
f 435 426 438 
f 437 419 438 
f 416 437 438 
f 421 427 439 
f 427 422 439 
f 430 421 439 
f 422 430 439 
f 421 418 440 
f 425 421 440 
f 418 425 440 
f 427 415 441 
f 422 427 441 
f 415 428 441 
f 428 422 441 
f 428 415 442 
f 420 428 442 
f 415 434 442 
o convex_10
v -0.022065 0.037137 0.052750
v -0.006382 0.037137 0.033530
v -0.006382 0.035621 0.033530
v -0.022065 0.037137 0.021381
v -0.017511 0.029041 0.052750
v -0.009922 0.040173 0.053260
v -0.017511 0.043210 0.021381
v -0.009922 0.030559 0.021381
v -0.020546 0.030559 0.021381
v -0.008405 0.042196 0.021381
v -0.010934 0.031066 0.051740
v -0.014474 0.042196 0.046679
v -0.022065 0.032584 0.054270
v -0.006382 0.034103 0.021381
v -0.009417 0.036125 0.053764
v -0.015486 0.039666 0.054780
v -0.006382 0.040173 0.028469
v -0.019535 0.041691 0.029479
v -0.013464 0.031573 0.054780
v -0.022065 0.032078 0.021381
v -0.011441 0.043210 0.025942
v -0.020546 0.030559 0.054270
v -0.021051 0.040173 0.021381
v -0.020546 0.038655 0.052750
v -0.015993 0.029041 0.049716
v -0.007899 0.032584 0.034540
v -0.011947 0.042196 0.045165
v -0.016498 0.043210 0.029986
v -0.006382 0.040173 0.021381
v -0.008405 0.042196 0.025942
v -0.009417 0.032584 0.049209
v -0.011441 0.030559 0.051740
v -0.021558 0.034609 0.054780
v -0.010429 0.037641 0.054780
v -0.007899 0.038655 0.043645
v -0.009922 0.030559 0.029479
v -0.015993 0.042196 0.043135
v -0.015993 0.040173 0.054270
v -0.006382 0.034103 0.029986
v -0.011441 0.043210 0.021381
f 449 463 482 
f 446 449 450 
f 446 450 451 
f 450 449 452 
f 443 446 455 
f 444 445 456 
f 450 452 456 
f 444 456 459 
f 453 457 461 
f 446 451 462 
f 455 446 462 
f 451 447 464 
f 447 461 464 
f 462 451 464 
f 455 462 464 
f 446 443 465 
f 449 446 465 
f 443 460 465 
f 460 449 465 
f 460 443 466 
f 447 451 467 
f 451 450 467 
f 450 456 468 
f 454 448 469 
f 469 463 470 
f 449 460 470 
f 463 449 470 
f 454 469 470 
f 456 452 471 
f 452 459 471 
f 459 456 471 
f 448 459 472 
f 459 452 472 
f 452 463 472 
f 469 448 472 
f 463 469 472 
f 445 457 473 
f 457 453 473 
f 453 468 473 
f 461 447 474 
f 453 461 474 
f 447 467 474 
f 468 453 474 
f 443 455 475 
f 461 458 475 
f 464 461 475 
f 455 464 475 
f 466 443 475 
f 457 448 476 
f 448 458 476 
f 461 457 476 
f 458 461 476 
f 445 444 477 
f 457 445 477 
f 448 457 477 
f 444 459 477 
f 459 448 477 
f 467 450 478 
f 450 468 478 
f 474 467 478 
f 468 474 478 
f 466 454 479 
f 460 466 479 
f 470 460 479 
f 454 470 479 
f 448 454 480 
f 458 448 480 
f 454 466 480 
f 475 458 480 
f 466 475 480 
f 456 445 481 
f 468 456 481 
f 445 473 481 
f 473 468 481 
f 452 449 482 
f 463 452 482 
o convex_11
v -0.001824 0.036631 -0.018088
v 0.002730 0.030559 0.010245
v -0.003851 0.036631 0.010754
v -0.020544 0.029042 -0.005942
v 0.002730 0.028535 -0.021127
v -0.022064 0.036631 -0.015560
v -0.022064 0.036631 0.010754
v -0.018014 0.029042 0.010754
v -0.015992 0.028535 -0.021127
v 0.002730 0.036631 0.008220
v 0.002730 0.028535 0.010245
v 0.002730 0.034606 -0.021127
v -0.012958 0.036631 -0.021127
v -0.024088 0.033088 -0.003926
v -0.022064 0.030559 0.009234
v -0.024088 0.036631 -0.001392
v -0.023582 0.032078 -0.005436
v -0.005368 0.028535 0.008223
v 0.001210 0.036631 -0.011509
v -0.000814 0.036124 -0.021127
v -0.022064 0.035112 -0.015051
v -0.020544 0.029042 0.004678
v -0.024088 0.036631 -0.007967
v 0.002730 0.035618 0.009740
v -0.022064 0.032078 0.010754
v -0.022064 0.030559 -0.007462
f 499 503 508 
f 485 483 488 
f 485 488 489 
f 485 489 490 
f 483 485 492 
f 484 487 492 
f 484 485 493 
f 487 484 493 
f 485 490 493 
f 491 487 493 
f 487 491 494 
f 492 487 494 
f 488 483 495 
f 491 488 495 
f 494 491 495 
f 489 488 498 
f 497 496 499 
f 493 490 500 
f 491 493 500 
f 483 492 501 
f 492 494 501 
f 501 494 502 
f 495 483 502 
f 494 495 502 
f 483 501 502 
f 488 491 503 
f 486 491 504 
f 497 486 504 
f 490 497 504 
f 500 490 504 
f 491 500 504 
f 496 498 505 
f 498 488 505 
f 499 496 505 
f 488 503 505 
f 503 499 505 
f 485 484 506 
f 492 485 506 
f 484 492 506 
f 490 489 507 
f 497 490 507 
f 496 497 507 
f 498 496 507 
f 489 498 507 
f 491 486 508 
f 486 497 508 
f 497 499 508 
f 503 491 508 
o convex_12
v -0.015485 0.036631 -0.020616
v 0.002730 0.037138 0.008220
v 0.002730 0.036631 0.008220
v -0.022064 0.036631 0.010754
v -0.021053 0.047765 -0.019102
v -0.010428 0.044726 0.010754
v -0.002331 0.045233 -0.016066
v -0.001825 0.039163 -0.021127
v -0.024090 0.041692 -0.021127
v -0.003852 0.046751 -0.002912
v -0.021053 0.043209 0.008728
v -0.009924 0.047765 -0.021127
v -0.015991 0.046751 0.005186
v 0.002730 0.037138 -0.008473
v -0.024090 0.036631 -0.006953
v 0.001210 0.043209 -0.009484
v -0.024090 0.044726 -0.016062
v -0.004862 0.036631 -0.021127
v -0.003852 0.042198 0.010754
v -0.011946 0.047765 -0.007462
v -0.003852 0.036631 0.010754
v -0.022064 0.036631 -0.016062
v -0.017509 0.044726 0.010754
v -0.001825 0.041692 -0.021127
v -0.006886 0.046751 0.002656
v -0.024090 0.038151 -0.002406
v -0.003852 0.045234 0.004172
v -0.022570 0.046245 -0.021127
v -0.000814 0.045233 -0.005945
v 0.001210 0.041692 -0.014546
v -0.003852 0.046751 -0.015051
v -0.000814 0.036631 -0.017074
v 0.002730 0.040174 -0.008473
v -0.022570 0.039670 0.007717
v -0.020546 0.038151 -0.021127
v -0.021053 0.047765 -0.017077
v 0.001210 0.037644 -0.015051
v -0.008404 0.047765 -0.011004
v -0.006886 0.046751 -0.021127
v 0.002730 0.037644 0.007714
v -0.019533 0.044726 0.007209
v -0.021053 0.041692 0.010754
v -0.000814 0.045233 -0.011509
v -0.011946 0.046751 0.005186
v -0.019026 0.047765 -0.021127
f 520 536 553 
f 509 511 512 
f 516 517 520 
f 510 511 522 
f 509 512 523 
f 517 523 525 
f 511 509 526 
f 517 516 526 
f 511 510 527 
f 514 512 527 
f 520 513 528 
f 512 511 529 
f 511 527 529 
f 527 512 529 
f 509 523 530 
f 523 517 530 
f 512 514 531 
f 514 521 531 
f 516 520 532 
f 523 512 534 
f 525 523 534 
f 514 527 535 
f 533 514 535 
f 518 533 535 
f 520 517 536 
f 525 513 536 
f 517 525 536 
f 518 535 537 
f 532 515 538 
f 518 537 539 
f 522 511 540 
f 511 526 540 
f 526 516 540 
f 510 522 541 
f 538 524 541 
f 519 525 542 
f 534 512 542 
f 525 534 542 
f 526 509 543 
f 517 526 543 
f 509 530 543 
f 530 517 543 
f 513 525 544 
f 525 519 544 
f 528 513 544 
f 521 528 544 
f 516 532 545 
f 532 538 545 
f 522 540 545 
f 540 516 545 
f 541 522 545 
f 538 541 545 
f 520 528 546 
f 533 518 546 
f 528 533 546 
f 539 520 546 
f 518 539 546 
f 515 532 547 
f 532 520 547 
f 539 515 547 
f 520 539 547 
f 527 510 548 
f 535 527 548 
f 524 537 548 
f 537 535 548 
f 510 541 548 
f 541 524 548 
f 519 531 549 
f 531 521 549 
f 544 519 549 
f 521 544 549 
f 512 531 550 
f 531 519 550 
f 542 512 550 
f 519 542 550 
f 537 524 551 
f 538 515 551 
f 524 538 551 
f 515 539 551 
f 539 537 551 
f 521 514 552 
f 528 521 552 
f 514 533 552 
f 533 528 552 
f 513 520 553 
f 536 513 553 
o convex_13
v 0.003237 0.035618 -0.020620
v 0.016394 0.029041 -0.018089
v 0.016394 0.028535 -0.018089
v 0.002730 0.028535 -0.006958
v 0.002730 0.028535 -0.021127
v 0.006779 0.034607 -0.008983
v 0.011837 0.036125 -0.021127
v 0.009309 0.028535 -0.006958
v 0.002730 0.034607 -0.007970
v 0.012851 0.033089 -0.013033
v 0.016394 0.028535 -0.021127
v 0.011837 0.036125 -0.016571
v 0.016394 0.031571 -0.019607
v 0.007287 0.033089 -0.006958
v 0.003743 0.036125 -0.021127
v 0.007287 0.036125 -0.015052
v 0.002730 0.034607 -0.021127
v 0.010319 0.029547 -0.007970
f 563 567 571 
f 556 557 558 
f 557 556 561 
f 558 557 562 
f 555 556 564 
f 556 558 564 
f 558 560 564 
f 565 563 566 
f 563 555 566 
f 555 564 566 
f 564 560 566 
f 560 565 566 
f 557 561 567 
f 559 562 567 
f 562 557 567 
f 565 559 567 
f 563 565 567 
f 560 558 568 
f 554 562 568 
f 565 560 568 
f 565 568 569 
f 562 559 569 
f 559 565 569 
f 568 562 569 
f 562 554 570 
f 558 562 570 
f 554 568 570 
f 568 558 570 
f 556 555 571 
f 561 556 571 
f 555 563 571 
f 567 561 571 
o convex_14
v 0.002730 0.036125 -0.001390
v 0.014876 0.029548 0.003162
v 0.014876 0.028535 0.003162
v 0.002730 0.029042 0.010248
v 0.002730 0.028535 -0.006958
v 0.003743 0.037644 0.007716
v 0.011839 0.031572 -0.005946
v 0.012851 0.028535 0.007211
v 0.008299 0.036125 0.006199
v 0.012851 0.028535 -0.005946
v 0.002730 0.033089 -0.006958
v 0.006779 0.036125 -0.000378
v 0.002730 0.036125 0.009236
v 0.011839 0.033089 -0.002402
v 0.007285 0.033089 -0.006958
v 0.003237 0.028535 0.010248
v 0.008299 0.034101 0.008223
v 0.014876 0.030054 -0.001390
v 0.011839 0.033089 0.005692
v 0.011333 0.028535 -0.006958
v 0.007285 0.034606 -0.004427
f 586 582 592 
f 575 572 576 
f 574 573 579 
f 576 574 579 
f 574 576 581 
f 576 572 582 
f 572 577 583 
f 577 580 583 
f 572 575 584 
f 577 572 584 
f 583 580 585 
f 576 582 586 
f 575 576 587 
f 576 579 587 
f 584 575 587 
f 584 587 588 
f 580 577 588 
f 577 584 588 
f 587 579 588 
f 573 574 589 
f 574 581 589 
f 581 578 589 
f 578 585 589 
f 589 585 590 
f 579 573 590 
f 585 580 590 
f 580 588 590 
f 588 579 590 
f 573 589 590 
f 581 576 591 
f 578 581 591 
f 576 586 591 
f 586 578 591 
f 582 572 592 
f 572 583 592 
f 585 578 592 
f 583 585 592 
f 578 586 592 
