o convex_0
v 0.017142 0.014117 0.030665
v -0.013553 0.006618 0.030323
v -0.012189 0.003550 0.030323
v -0.008436 0.005597 0.054534
v 0.000091 0.030488 0.031006
v 0.008273 0.024348 0.054534
v 0.007590 0.001844 0.053510
v 0.002816 -0.003616 0.030323
v -0.007072 0.021276 0.053852
v 0.014071 0.009009 0.053852
v 0.014753 0.002184 0.030323
v -0.011846 0.020258 0.030323
v -0.005365 0.000137 0.053510
v 0.007590 0.029126 0.030323
v -0.000591 0.027420 0.052145
v -0.010482 0.011733 0.052145
v -0.006047 -0.002931 0.030323
v 0.012365 0.019573 0.053510
v -0.005708 0.027420 0.031689
v 0.003498 0.000478 0.054534
v 0.012025 0.024348 0.030323
v 0.017142 0.006278 0.030323
v -0.013553 0.014458 0.032712
v 0.010319 -0.001225 0.031006
v 0.001113 -0.001569 0.048396
v -0.005365 0.024692 0.051804
v 0.015775 0.012415 0.045665
v 0.004520 0.030488 0.032030
v -0.001616 0.025713 0.054534
v -0.008779 0.017526 0.054193
v 0.013729 0.014117 0.054534
v -0.008779 0.003890 0.052145
v -0.010143 0.000478 0.031006
v 0.005884 0.026054 0.053510
v -0.002637 -0.003272 0.035099
v 0.009297 0.024007 0.053852
v 0.012025 0.004915 0.050782
v 0.015436 0.018551 0.031006
v -0.008779 0.024351 0.030323
v 0.004180 0.000137 0.053852
v 0.006226 -0.002931 0.030665
v -0.010482 0.009009 0.051465
v -0.013553 0.010031 0.033734
v 0.001455 0.030832 0.030323
v -0.007072 0.001844 0.054193
v -0.013210 0.017186 0.030665
v 0.001113 0.027760 0.050782
v 0.012025 0.006959 0.054534
v 0.014071 0.001503 0.031006
v -0.003662 0.027420 0.041579
v -0.011846 0.019914 0.032371
v 0.017142 0.010031 0.034417
v 0.014071 0.015480 0.052486
v 0.015436 0.003550 0.032371
v -0.001273 -0.001565 0.048734
v -0.008779 0.024351 0.032030
v 0.016800 0.015480 0.030323
v 0.011001 0.025713 0.031006
v 0.011001 0.022301 0.051465
v 0.013729 0.007984 0.053510
v -0.008436 0.017526 0.054534
v 0.015775 0.011052 0.046006
v -0.008436 -0.001225 0.030665
v -0.004683 0.000478 0.054534
f 55 40 64 
f 3 2 8 
f 8 2 11 
f 11 2 12 
f 11 12 14 
f 3 8 17 
f 6 4 20 
f 11 14 21 
f 11 21 22 
f 4 6 29 
f 26 9 29 
f 15 26 29 
f 16 4 30 
f 23 16 30 
f 18 6 31 
f 6 20 31 
f 2 3 32 
f 32 3 33 
f 14 28 34 
f 29 6 34 
f 15 29 34 
f 17 8 35 
f 13 17 35 
f 8 25 35 
f 6 18 36 
f 34 6 36 
f 14 34 36 
f 14 12 39 
f 7 20 40 
f 24 7 40 
f 40 25 41 
f 8 11 41 
f 11 24 41 
f 25 8 41 
f 24 40 41 
f 4 16 42 
f 2 32 42 
f 32 4 42 
f 23 2 43 
f 16 23 43 
f 42 16 43 
f 2 42 43 
f 5 15 44 
f 19 5 44 
f 28 14 44 
f 14 39 44 
f 39 19 44 
f 4 32 45 
f 32 33 45 
f 12 2 46 
f 2 23 46 
f 23 30 46 
f 34 28 47 
f 15 34 47 
f 44 15 47 
f 28 44 47 
f 20 7 48 
f 31 20 48 
f 10 31 48 
f 24 11 49 
f 7 24 49 
f 37 7 49 
f 15 5 50 
f 5 19 50 
f 26 15 50 
f 19 26 50 
f 9 26 51 
f 30 9 51 
f 12 46 51 
f 46 30 51 
f 22 1 52 
f 1 27 52 
f 27 1 53 
f 18 31 53 
f 31 27 53 
f 11 22 54 
f 49 11 54 
f 37 49 54 
f 13 35 55 
f 35 25 55 
f 25 40 55 
f 26 19 56 
f 39 12 56 
f 19 39 56 
f 51 26 56 
f 12 51 56 
f 1 22 57 
f 22 21 57 
f 38 18 57 
f 21 38 57 
f 53 1 57 
f 18 53 57 
f 21 14 58 
f 14 36 58 
f 58 36 59 
f 36 18 59 
f 18 38 59 
f 38 21 59 
f 21 58 59 
f 22 10 60 
f 7 37 60 
f 48 7 60 
f 10 48 60 
f 54 22 60 
f 37 54 60 
f 4 29 61 
f 29 9 61 
f 9 30 61 
f 30 4 61 
f 10 22 62 
f 31 10 62 
f 27 31 62 
f 22 52 62 
f 52 27 62 
f 3 17 63 
f 17 13 63 
f 33 3 63 
f 13 45 63 
f 45 33 63 
f 20 4 64 
f 40 20 64 
f 4 45 64 
f 45 13 64 
f 13 55 64 
o convex_1
v 0.014754 -0.004292 0.009858
v 0.005207 0.030485 0.030321
v 0.003159 0.030828 0.030319
v 0.008274 0.033558 0.007812
v 0.002135 -0.008384 0.008836
v 0.017142 0.006281 0.030319
v 0.002135 -0.003615 0.030319
v 0.021576 0.013438 0.007471
v 0.002135 0.035264 0.009178
v 0.016800 0.024349 0.015658
v 0.016800 0.015820 0.030319
v 0.020552 0.005938 0.006447
v 0.015435 0.025373 0.005767
v 0.013049 -0.005659 0.015317
v 0.021576 0.006619 0.015315
v 0.010662 0.033215 0.013269
v 0.014071 0.001164 0.030319
v 0.002135 0.030828 0.030319
v 0.011005 0.025711 0.030319
v 0.002135 -0.007364 0.008154
v 0.018505 -0.000542 0.015317
v 0.021576 0.011736 0.017019
v 0.004866 0.035264 0.017704
v 0.017823 0.024687 0.008495
v 0.009298 -0.007707 0.013271
v 0.020212 0.010031 0.005767
v 0.006569 -0.002929 0.030321
v 0.005888 0.033215 0.007812
v 0.020212 0.018893 0.012589
v 0.002135 -0.008727 0.013269
v 0.015094 0.029123 0.011226
v 0.010322 -0.007021 0.009519
v 0.014411 0.024006 0.005767
v 0.020212 0.003208 0.007812
v 0.007252 0.034921 0.016341
v 0.018505 0.009006 0.027929
v 0.002478 -0.004292 0.029636
v 0.002135 0.035264 0.016682
v 0.014754 0.028780 0.007812
v 0.015435 0.019575 0.029297
v 0.002135 0.002188 0.008154
v 0.006569 0.035264 0.010882
v 0.007593 0.029123 0.030321
v 0.021576 0.007301 0.007471
v 0.016800 -0.002586 0.015658
v 0.020212 0.002870 0.016000
v 0.015435 0.001845 0.028956
v 0.010662 -0.001223 0.030319
v 0.017823 0.022304 0.006106
v 0.015435 -0.004296 0.011226
v 0.010322 0.033558 0.011226
v 0.012366 0.024006 0.030319
v 0.002135 0.033558 0.008836
v 0.019528 0.003208 0.007130
v 0.009641 -0.007707 0.010541
v 0.018845 0.011055 0.005767
v 0.020552 0.012756 0.005767
v 0.021576 0.014458 0.008836
v 0.004524 -0.007707 0.016680
v 0.021576 0.008664 0.017362
v 0.018505 0.011055 0.027929
v 0.005207 0.035602 0.015315
v 0.020212 0.019232 0.009178
v 0.018505 0.006281 0.026227
f 124 100 128 
f 69 71 73 
f 66 67 82 
f 71 66 82 
f 73 71 82 
f 69 73 84 
f 79 72 86 
f 67 66 87 
f 82 67 87 
f 76 84 90 
f 66 71 91 
f 81 70 91 
f 89 78 91 
f 73 68 92 
f 68 77 92 
f 75 86 93 
f 71 69 94 
f 80 83 95 
f 74 93 95 
f 93 88 95 
f 69 84 96 
f 77 90 97 
f 92 77 97 
f 87 66 99 
f 91 71 101 
f 89 91 101 
f 71 94 101 
f 73 82 102 
f 82 87 102 
f 77 68 103 
f 95 88 103 
f 93 74 104 
f 75 93 104 
f 84 73 105 
f 97 84 105 
f 92 97 105 
f 68 73 106 
f 70 75 107 
f 83 80 107 
f 66 91 107 
f 91 70 107 
f 80 99 107 
f 99 66 107 
f 72 79 108 
f 98 76 108 
f 79 98 108 
f 81 78 109 
f 98 79 110 
f 85 98 110 
f 70 81 111 
f 81 109 111 
f 109 85 111 
f 85 110 111 
f 78 81 112 
f 81 91 112 
f 91 78 112 
f 77 103 113 
f 103 88 113 
f 96 65 114 
f 65 98 114 
f 98 85 114 
f 109 78 114 
f 85 109 114 
f 80 95 115 
f 99 80 115 
f 103 68 115 
f 95 103 115 
f 68 106 115 
f 106 99 115 
f 74 95 116 
f 95 83 116 
f 104 74 116 
f 75 104 116 
f 107 75 116 
f 83 107 116 
f 73 92 117 
f 105 73 117 
f 92 105 117 
f 84 76 118 
f 65 96 118 
f 96 84 118 
f 76 98 118 
f 98 65 118 
f 78 89 119 
f 94 69 119 
f 89 94 119 
f 69 96 119 
f 114 78 119 
f 96 114 119 
f 90 84 120 
f 97 90 120 
f 84 97 120 
f 76 90 121 
f 90 77 121 
f 72 108 121 
f 108 76 121 
f 113 72 121 
f 77 113 121 
f 86 72 122 
f 93 86 122 
f 94 89 123 
f 89 101 123 
f 101 94 123 
f 79 86 124 
f 100 124 125 
f 75 70 125 
f 86 75 125 
f 70 100 125 
f 124 86 125 
f 87 99 126 
f 73 102 126 
f 102 87 126 
f 106 73 126 
f 99 106 126 
f 88 93 127 
f 72 113 127 
f 113 88 127 
f 122 72 127 
f 93 122 127 
f 100 70 128 
f 110 79 128 
f 70 111 128 
f 111 110 128 
f 79 124 128 
o convex_2
v 0.001451 -0.008725 0.014631
v -0.018670 0.022983 0.012245
v -0.018670 0.022983 0.013268
v 0.002135 0.035266 0.016337
v -0.011847 -0.001226 0.020089
v -0.008436 -0.003270 0.006447
v 0.002135 0.034923 0.009176
v 0.002135 0.033898 0.020089
v -0.017645 0.024007 0.006790
v 0.002135 -0.005995 0.020088
v 0.002135 -0.007701 0.008153
v -0.016621 0.019915 0.020089
v -0.005709 -0.008387 0.007811
v -0.018327 0.024689 0.013268
v -0.005709 -0.006000 0.020089
v -0.013894 0.024346 0.020089
v -0.016963 0.020935 0.006447
v -0.010483 -0.003951 0.015995
v -0.017303 0.015141 0.019405
v 0.000769 0.035261 0.011223
v 0.001793 -0.004633 0.007813
v -0.017985 0.024689 0.007471
v -0.007756 -0.002246 0.006447
v -0.003322 -0.009073 0.012245
v -0.017985 0.017866 0.016335
v -0.009458 -0.001903 0.007129
v -0.008436 -0.005657 0.018042
v -0.016621 0.022983 0.006447
v 0.000769 0.033560 0.020088
v 0.002135 -0.009064 0.010199
v 0.000769 0.034923 0.015995
v -0.002640 -0.008044 0.007129
v -0.017645 0.022302 0.006790
v -0.007416 -0.007024 0.008494
v -0.016281 0.026052 0.010883
v -0.017303 0.015822 0.020089
v -0.002640 -0.007705 0.017360
v 0.001451 0.035261 0.009517
v -0.001958 -0.009073 0.008494
v -0.010143 -0.003613 0.020089
v -0.015941 0.017185 0.006790
v -0.016281 0.026052 0.009176
v 0.002135 -0.007363 0.018042
v -0.017985 0.019233 0.017701
v -0.001958 -0.009064 0.013949
v -0.002300 -0.005657 0.007129
v 0.000429 0.034923 0.014972
v -0.011847 -0.001226 0.019064
v -0.018327 0.024346 0.013949
v -0.008098 -0.005657 0.007811
v -0.015258 0.019572 0.006447
v -0.006051 -0.007705 0.007129
v -0.007074 -0.007363 0.010883
v -0.010483 -0.003951 0.018384
v -0.014234 0.024689 0.019064
v -0.016621 0.012754 0.020089
v -0.014576 0.023669 0.020089
v 0.002135 -0.009064 0.012927
v 0.001111 -0.008725 0.008495
v -0.004347 -0.007705 0.016335
v -0.008778 -0.002931 0.006447
v -0.017645 0.017185 0.015653
v -0.018670 0.024346 0.011222
v -0.003665 -0.009073 0.008494
f 160 167 192 
f 135 132 136 
f 135 136 138 
f 135 138 139 
f 133 136 140 
f 136 133 143 
f 138 136 143 
f 140 136 144 
f 135 139 149 
f 134 145 151 
f 131 130 153 
f 137 135 156 
f 145 137 156 
f 151 145 156 
f 136 132 157 
f 144 136 157 
f 139 138 158 
f 157 132 159 
f 142 157 159 
f 149 139 160 
f 134 151 160 
f 137 145 161 
f 150 137 161 
f 153 130 161 
f 133 140 164 
f 153 147 164 
f 132 135 166 
f 135 137 166 
f 148 132 166 
f 137 150 166 
f 143 133 168 
f 155 143 168 
f 154 146 169 
f 161 145 169 
f 142 163 170 
f 163 148 170 
f 148 166 170 
f 166 150 170 
f 138 143 171 
f 158 138 171 
f 143 165 171 
f 131 153 172 
f 164 140 172 
f 153 164 172 
f 129 171 173 
f 171 165 173 
f 135 149 174 
f 151 135 174 
f 149 160 174 
f 160 151 174 
f 132 148 175 
f 159 132 175 
f 142 159 175 
f 163 142 175 
f 148 163 175 
f 146 133 176 
f 153 146 176 
f 131 172 177 
f 172 140 177 
f 146 154 178 
f 162 146 178 
f 135 151 179 
f 156 135 179 
f 151 156 179 
f 134 160 180 
f 160 141 180 
f 141 162 180 
f 162 178 180 
f 141 152 181 
f 152 155 181 
f 162 141 181 
f 162 181 182 
f 133 146 182 
f 146 162 182 
f 168 133 182 
f 155 168 182 
f 181 155 182 
f 157 142 183 
f 144 157 183 
f 142 177 183 
f 177 144 183 
f 147 153 184 
f 133 164 184 
f 164 147 184 
f 176 133 184 
f 153 176 184 
f 140 144 185 
f 177 140 185 
f 144 177 185 
f 152 167 186 
f 167 158 186 
f 171 129 186 
f 158 171 186 
f 173 152 186 
f 129 173 186 
f 139 158 187 
f 160 139 187 
f 158 167 187 
f 167 160 187 
f 143 155 188 
f 155 152 188 
f 165 143 188 
f 152 173 188 
f 173 165 188 
f 145 134 189 
f 169 145 189 
f 154 169 189 
f 178 154 189 
f 134 180 189 
f 180 178 189 
f 146 153 190 
f 153 161 190 
f 169 146 190 
f 161 169 190 
f 130 131 191 
f 150 161 191 
f 161 130 191 
f 142 170 191 
f 170 150 191 
f 131 177 191 
f 177 142 191 
f 152 141 192 
f 141 160 192 
f 167 152 192 
o convex_3
v 0.001453 0.030827 0.030320
v -0.016964 0.005938 0.020432
v -0.016964 0.005938 0.020773
v 0.002135 -0.006003 0.020089
v 0.002135 0.033901 0.020089
v -0.006050 -0.002929 0.030320
v -0.012187 0.019914 0.030320
v -0.014915 0.022640 0.020089
v 0.002135 -0.003952 0.030320
v -0.008779 -0.004296 0.020089
v -0.013552 0.006282 0.030320
v -0.005709 0.027417 0.030320
v -0.016622 0.013094 0.023501
v -0.011507 -0.001226 0.023842
v -0.004004 -0.006003 0.023160
v 0.002135 0.030827 0.030320
v 0.000771 0.033558 0.020432
v -0.016280 0.020258 0.020089
v -0.013552 0.016504 0.030320
v -0.011847 0.002184 0.029979
v -0.012870 0.024691 0.020432
v -0.014915 0.002184 0.022137
v -0.003664 0.029124 0.029297
v -0.010142 0.022984 0.030320
v -0.014915 0.011395 0.028273
v -0.016964 0.014117 0.020089
v -0.005369 -0.006003 0.020089
v -0.000936 -0.004292 0.029979
v 0.000771 -0.006003 0.023501
v -0.010825 -0.002589 0.020089
v -0.008779 -0.004296 0.021114
v -0.008097 -0.001566 0.030320
v -0.016964 0.016160 0.021114
v -0.000254 0.030488 0.030320
v -0.016622 0.010031 0.023501
v -0.014915 0.014797 0.027933
v -0.016280 0.020258 0.020432
v -0.014915 0.022640 0.020432
v -0.009802 -0.002929 0.023501
v -0.006732 -0.004292 0.025205
v 0.001793 0.033901 0.020773
v -0.011847 0.020937 0.029979
v 0.002135 -0.006003 0.022478
v -0.012870 0.024691 0.020089
v -0.010482 0.000481 0.029979
v 0.001793 -0.004292 0.029979
v -0.014915 0.002184 0.021114
f 222 214 239 
f 198 193 199 
f 197 196 200 
f 196 197 201 
f 193 198 201 
f 200 196 202 
f 198 199 203 
f 199 193 204 
f 193 201 208 
f 201 197 208 
f 200 202 210 
f 203 199 211 
f 195 194 214 
f 203 195 214 
f 212 203 214 
f 213 204 215 
f 209 213 215 
f 199 204 216 
f 204 213 216 
f 203 211 217 
f 194 195 218 
f 210 202 218 
f 202 196 219 
f 196 207 219 
f 201 198 220 
f 198 207 220 
f 220 207 221 
f 207 196 221 
f 206 214 222 
f 194 218 222 
f 218 202 222 
f 202 219 223 
f 219 207 223 
f 222 202 223 
f 198 203 224 
f 203 212 224 
f 218 195 225 
f 210 218 225 
f 204 193 226 
f 215 204 226 
f 209 215 226 
f 195 203 227 
f 203 217 227 
f 217 205 227 
f 225 195 227 
f 205 225 227 
f 205 217 228 
f 217 211 228 
f 225 205 228 
f 225 228 229 
f 200 210 229 
f 211 199 229 
f 210 225 229 
f 228 211 229 
f 213 200 230 
f 216 213 230 
f 200 229 230 
f 206 222 231 
f 222 223 231 
f 198 224 231 
f 224 206 231 
f 207 198 232 
f 223 207 232 
f 198 231 232 
f 231 223 232 
f 193 208 233 
f 208 197 233 
f 197 209 233 
f 226 193 233 
f 209 226 233 
f 199 216 234 
f 229 199 234 
f 216 230 234 
f 230 229 234 
f 196 201 235 
f 221 196 235 
f 197 200 236 
f 209 197 236 
f 200 213 236 
f 213 209 236 
f 214 206 237 
f 212 214 237 
f 224 212 237 
f 206 224 237 
f 201 220 238 
f 220 221 238 
f 235 201 238 
f 221 235 238 
f 214 194 239 
f 194 222 239 
